<?xml version="1.0" encoding="UTF-8"?>
<svg width="43.44" height="42.37" version="1.1" viewBox="0 0 43.44 42.37" xml:space="preserve" xmlns="http://www.w3.org/2000/svg"><defs><clipPath id="clipPath20"><path d="m0 552h531v-552h-531z"/></clipPath></defs><g transform="matrix(1.333 0 0 -1.333 -181.8 592.7)"><path d="m0 0h531v276h-531z" fill="#231f20"/><g clip-path="url(#clipPath20)"><g transform="translate(152.6 444.5)"><path d="m0 0c-8.995 0-16.29-7.293-16.29-16.29 0-7.197 4.667-13.3 11.14-15.46 0.815-0.149 1.112 0.354 1.112 0.786 0 0.386-0.014 1.411-0.022 2.77-4.531-0.984-5.487 2.184-5.487 2.184-0.741 1.881-1.809 2.382-1.809 2.382-1.479 1.011 0.112 0.991 0.112 0.991 1.635-0.116 2.495-1.679 2.495-1.679 1.453-2.489 3.813-1.77 4.741-1.354 0.148 1.053 0.568 1.771 1.034 2.178-3.617 0.411-7.42 1.809-7.42 8.051 0 1.778 0.635 3.232 1.677 4.371-0.168 0.412-0.727 2.068 0.159 4.311 0 0 1.368 0.438 4.48-1.67 1.299 0.361 2.693 0.542 4.078 0.548 1.383-6e-3 2.777-0.187 4.078-0.548 3.11 2.108 4.475 1.67 4.475 1.67 0.889-2.243 0.33-3.899 0.162-4.311 1.044-1.139 1.675-2.593 1.675-4.371 0-6.258-3.809-7.635-7.438-8.038 0.585-0.503 1.106-1.497 1.106-3.017 0-2.177-0.02-3.934-0.02-4.468 0-0.436 0.293-0.943 1.12-0.784 6.468 2.159 11.13 8.26 11.13 15.46 0 8.997-7.294 16.29-16.29 16.29" fill="#1b1817" fill-rule="evenodd"/></g><g transform="translate(350.6 493.6)"><path d="m0 0c-33.35 0-60.39-27.04-60.39-60.39 0-26.68 17.3-49.32 41.3-57.3 3.018-0.559 4.126 1.31 4.126 2.905 0 1.439-0.056 6.197-0.082 11.24-16.8-3.653-20.34 7.125-20.34 7.125-2.747 6.979-6.705 8.836-6.705 8.836-5.479 3.748 0.413 3.671 0.413 3.671 6.064-0.426 9.257-6.224 9.257-6.224 5.386-9.231 14.13-6.562 17.57-5.019 0.543 3.902 2.107 6.567 3.834 8.075-13.41 1.526-27.51 6.705-27.51 29.84 0 6.592 2.359 11.98 6.222 16.21-0.627 1.521-2.694 7.663 0.586 15.98 0 0 5.071 1.622 16.61-6.191 4.817 1.338 9.983 2.009 15.12 2.033 5.132-0.024 10.3-0.695 15.13-2.033 11.53 7.813 16.59 6.191 16.59 6.191 3.287-8.318 1.22-14.46 0.593-15.98 3.872-4.229 6.214-9.617 6.214-16.21 0-23.2-14.13-28.3-27.57-29.8 2.166-1.874 4.096-5.549 4.096-11.18 0-8.08-0.069-14.58-0.069-16.57 0-1.608 1.086-3.49 4.147-2.898 23.98 7.994 41.26 30.62 41.26 57.29 0 33.35-27.04 60.39-60.39 60.39" fill="#1b1817" fill-rule="evenodd"/></g><g transform="translate(313.1 406.9)"><path d="m0 0c-0.133-0.301-0.605-0.391-1.035-0.185-0.439 0.198-0.684 0.607-0.542 0.908 0.13 0.308 0.602 0.394 1.04 0.188 0.438-0.197 0.688-0.61 0.537-0.911" fill="#1b1817"/></g><g transform="translate(315.5 404.1)"><path d="m0 0c-0.288-0.267-0.852-0.143-1.233 0.279-0.396 0.421-0.469 0.985-0.177 1.255 0.297 0.267 0.843 0.142 1.238-0.279 0.396-0.426 0.473-0.984 0.172-1.255" fill="#1b1817"/></g><g transform="translate(317.9 400.6)"><path d="m0 0c-0.37-0.258-0.976-0.017-1.35 0.52-0.37 0.538-0.37 1.182 9e-3 1.44 0.374 0.258 0.971 0.025 1.35-0.507 0.369-0.546 0.369-1.19-9e-3 -1.453" fill="#1b1817"/></g><g transform="translate(321.2 397.3)"><path d="m0 0c-0.331-0.365-1.036-0.267-1.552 0.232-0.528 0.486-0.675 1.177-0.344 1.542 0.336 0.366 1.045 0.263 1.565-0.231 0.524-0.486 0.683-1.182 0.331-1.543" fill="#1b1817"/></g><g transform="translate(325.7 395.3)"><path d="m0 0c-0.147-0.473-0.825-0.687-1.509-0.486-0.683 0.207-1.13 0.76-0.992 1.238 0.142 0.476 0.824 0.7 1.513 0.485 0.682-0.206 1.13-0.756 0.988-1.237" fill="#1b1817"/></g><g transform="translate(330.6 395)"><path d="m0 0c0.017-0.498-0.563-0.911-1.281-0.92-0.722-0.016-1.307 0.387-1.315 0.877 0 0.503 0.568 0.911 1.289 0.924 0.718 0.014 1.307-0.387 1.307-0.881" fill="#1b1817"/></g><g transform="translate(335.2 395.8)"><path d="m0 0c0.086-0.485-0.413-0.984-1.126-1.117-0.701-0.129-1.35 0.172-1.439 0.653-0.087 0.498 0.42 0.997 1.121 1.126 0.714 0.124 1.353-0.168 1.444-0.662" fill="#1b1817"/></g><g transform="translate(224.9 499.5)"><path d="m0 0v-0.5" fill="none" stroke="#3a7fc3" stroke-linecap="round" stroke-miterlimit="10"/></g><g transform="translate(224.9 497)"><path d="m0 0v-134" fill="none" stroke="#3a7fc3" stroke-dasharray="1, 2" stroke-linecap="round" stroke-miterlimit="10"/></g><g transform="translate(224.9 362)"><path d="m0 0v-0.5" fill="none" stroke="#3a7fc3" stroke-linecap="round" stroke-miterlimit="10"/></g><g transform="translate(133.3 347.5)"><path d="m0 0c-0.38 0.276-0.866 0.414-1.458 0.414-0.24 0-0.476-0.024-0.708-0.071-0.232-0.049-0.438-0.129-0.618-0.24-0.18-0.114-0.324-0.263-0.432-0.452-0.108-0.187-0.162-0.421-0.162-0.701 0-0.264 0.078-0.478 0.234-0.642 0.156-0.165 0.364-0.298 0.624-0.402s0.554-0.19 0.882-0.259c0.328-0.067 0.662-0.141 1.002-0.22 0.34-0.08 0.674-0.175 1.002-0.284 0.328-0.107 0.622-0.253 0.882-0.437s0.468-0.416 0.624-0.695c0.156-0.281 0.234-0.633 0.234-1.057 0-0.456-0.102-0.846-0.306-1.17s-0.466-0.588-0.786-0.792-0.678-0.352-1.074-0.444-0.79-0.138-1.182-0.138c-0.48 0-0.934 0.06-1.362 0.18s-0.804 0.302-1.128 0.546-0.58 0.556-0.768 0.936-0.282 0.829-0.282 1.35h1.08c0-0.361 0.07-0.67 0.21-0.93 0.14-0.261 0.324-0.474 0.552-0.642 0.228-0.167 0.494-0.292 0.798-0.372 0.304-0.081 0.616-0.12 0.936-0.12 0.256 0 0.514 0.024 0.774 0.073 0.26 0.047 0.494 0.129 0.702 0.246 0.208 0.115 0.376 0.273 0.504 0.472 0.128 0.201 0.192 0.457 0.192 0.769 0 0.296-0.078 0.536-0.234 0.72-0.156 0.183-0.364 0.334-0.624 0.45s-0.554 0.21-0.882 0.282-0.662 0.147-1.002 0.223c-0.34 0.075-0.674 0.163-1.002 0.263s-0.622 0.232-0.882 0.396-0.468 0.376-0.624 0.636c-0.156 0.259-0.234 0.586-0.234 0.978 0 0.432 0.088 0.806 0.264 1.122s0.41 0.575 0.702 0.78c0.292 0.204 0.624 0.356 0.996 0.456s0.754 0.15 1.146 0.15c0.44 0 0.848-0.053 1.224-0.156 0.376-0.104 0.706-0.268 0.99-0.493 0.284-0.223 0.508-0.505 0.672-0.845s0.254-0.746 0.27-1.218h-1.08c-0.064 0.616-0.286 1.062-0.666 1.338" fill="#176fc1"/></g><g transform="translate(137.6 346.3)"><path d="m0 0v-0.912h0.024c0.464 0.705 1.132 1.057 2.004 1.057 0.384 0 0.732-0.08 1.044-0.241 0.312-0.16 0.532-0.431 0.66-0.816 0.208 0.336 0.482 0.596 0.822 0.78 0.34 0.185 0.714 0.277 1.122 0.277 0.312 0 0.594-0.035 0.846-0.102 0.252-0.068 0.468-0.175 0.648-0.318 0.18-0.145 0.32-0.33 0.42-0.559 0.1-0.227 0.15-0.502 0.15-0.822v-4.547h-1.02v4.067c0 0.193-0.016 0.372-0.048 0.54s-0.092 0.315-0.18 0.438c-0.088 0.125-0.21 0.223-0.366 0.295s-0.358 0.107-0.606 0.107c-0.504 0-0.9-0.143-1.188-0.431-0.288-0.289-0.432-0.672-0.432-1.153v-3.863h-1.02v4.067c0 0.201-0.018 0.384-0.054 0.552s-0.098 0.314-0.186 0.438c-0.088 0.125-0.206 0.22-0.354 0.289-0.148 0.068-0.338 0.101-0.57 0.101-0.296 0-0.55-0.059-0.762-0.179-0.212-0.121-0.384-0.264-0.516-0.432s-0.228-0.342-0.288-0.523c-0.06-0.18-0.09-0.33-0.09-0.45v-3.863h-1.02v6.203z" fill="#176fc1"/></g><g transform="translate(150.2 343.1)"><path d="m0 0c-0.208-0.045-0.426-0.08-0.654-0.108-0.228-0.029-0.458-0.06-0.69-0.097-0.232-0.035-0.44-0.094-0.624-0.174s-0.334-0.193-0.45-0.342c-0.116-0.148-0.174-0.349-0.174-0.605 0-0.168 0.034-0.311 0.102-0.426 0.068-0.117 0.156-0.211 0.264-0.283 0.108-0.071 0.236-0.123 0.384-0.155 0.148-0.033 0.298-0.048 0.45-0.048 0.336 0 0.624 0.045 0.864 0.137s0.436 0.208 0.588 0.349c0.152 0.139 0.264 0.291 0.336 0.455s0.108 0.318 0.108 0.463v1.043c-0.128-0.096-0.296-0.166-0.504-0.209m1.428-3.127c-0.264 0-0.474 0.074-0.63 0.223-0.156 0.147-0.234 0.389-0.234 0.725-0.28-0.336-0.606-0.578-0.978-0.725-0.372-0.149-0.774-0.223-1.206-0.223-0.28 0-0.544 0.03-0.792 0.09s-0.466 0.16-0.654 0.301c-0.188 0.139-0.336 0.319-0.444 0.539s-0.162 0.486-0.162 0.799c0 0.351 0.06 0.639 0.18 0.863s0.278 0.406 0.474 0.547c0.196 0.139 0.42 0.246 0.672 0.318 0.252 0.071 0.51 0.131 0.774 0.18 0.28 0.055 0.546 0.097 0.798 0.125s0.474 0.068 0.666 0.121c0.192 0.051 0.344 0.127 0.456 0.227 0.112 0.101 0.168 0.246 0.168 0.439 0 0.223-0.042 0.403-0.126 0.539-0.084 0.137-0.192 0.24-0.324 0.312-0.132 0.073-0.28 0.121-0.444 0.145-0.164 0.023-0.326 0.035-0.486 0.035-0.432 0-0.792-0.082-1.08-0.246s-0.444-0.474-0.468-0.93h-1.02c0.016 0.384 0.096 0.708 0.24 0.973 0.144 0.264 0.336 0.478 0.576 0.642 0.24 0.163 0.516 0.282 0.828 0.354 0.312 0.071 0.64 0.108 0.984 0.108 0.28 0 0.558-0.02 0.834-0.061 0.276-0.039 0.526-0.121 0.75-0.246 0.224-0.123 0.404-0.298 0.54-0.522s0.204-0.515 0.204-0.876v-3.192c0-0.24 0.014-0.416 0.042-0.527 0.028-0.113 0.122-0.168 0.282-0.168 0.088 0 0.192 0.019 0.312 0.059v-0.792c-0.176-0.103-0.42-0.156-0.732-0.156" fill="#176fc1"/></g><path d="m154.4 340.1h-1.02v8.567h1.02z" fill="#176fc1"/><path d="m157 340.1h-1.02v8.567h1.02z" fill="#176fc1"/><g transform="translate(101.9 331)"><path d="m0 0v0.899h1.044v0.924c0 0.504 0.146 0.886 0.438 1.146s0.718 0.39 1.278 0.39c0.096 0 0.206-7e-3 0.33-0.023 0.124-0.017 0.234-0.041 0.33-0.072v-0.889c-0.088 0.032-0.184 0.055-0.288 0.066-0.104 0.012-0.2 0.018-0.288 0.018-0.248 0-0.44-0.048-0.576-0.144s-0.204-0.28-0.204-0.551v-0.865h1.2v-0.899h-1.2v-5.305h-1.02v5.305z" fill="#176fc1"/></g><g transform="translate(106.9 327.8)"><path d="m0 0c0.1-0.292 0.238-0.535 0.414-0.732 0.176-0.196 0.382-0.346 0.618-0.45 0.236-0.103 0.486-0.156 0.75-0.156s0.514 0.053 0.75 0.156c0.236 0.104 0.442 0.254 0.618 0.45 0.176 0.197 0.314 0.44 0.414 0.732s0.15 0.626 0.15 1.002c0 0.377-0.05 0.71-0.15 1.002-0.1 0.293-0.238 0.538-0.414 0.738-0.176 0.199-0.382 0.352-0.618 0.456-0.236 0.105-0.486 0.157-0.75 0.157s-0.514-0.052-0.75-0.157c-0.236-0.104-0.442-0.257-0.618-0.456-0.176-0.2-0.314-0.445-0.414-0.738-0.1-0.292-0.15-0.625-0.15-1.002 0-0.376 0.05-0.71 0.15-1.002m-1.038 2.28c0.128 0.396 0.32 0.74 0.576 1.033 0.256 0.291 0.572 0.521 0.948 0.689s0.808 0.252 1.296 0.252c0.496 0 0.93-0.084 1.302-0.252s0.686-0.398 0.942-0.689c0.256-0.293 0.448-0.637 0.576-1.033 0.128-0.395 0.192-0.822 0.192-1.278 0-0.455-0.064-0.88-0.192-1.272s-0.32-0.734-0.576-1.026-0.57-0.52-0.942-0.684-0.806-0.246-1.302-0.246c-0.488 0-0.92 0.082-1.296 0.246s-0.692 0.392-0.948 0.684-0.448 0.634-0.576 1.026-0.192 0.817-0.192 1.272c0 0.456 0.064 0.883 0.192 1.278" fill="#176fc1"/></g><g transform="translate(113.8 331.9)"><path d="m0 0v-1.308h0.024c0.248 0.504 0.552 0.875 0.912 1.116 0.36 0.24 0.816 0.351 1.368 0.336v-1.081c-0.408 0-0.756-0.055-1.044-0.168-0.288-0.111-0.52-0.275-0.696-0.492-0.176-0.215-0.304-0.477-0.384-0.785s-0.12-0.662-0.12-1.062v-2.76h-1.02v6.204z" fill="#176fc1"/></g><g transform="translate(122.7 325.7)"><path d="m0 0v6.096h-2.208v0.816c0.288 0 0.568 0.022 0.84 0.066 0.272 0.043 0.518 0.125 0.738 0.247 0.22 0.119 0.406 0.283 0.558 0.491s0.256 0.472 0.312 0.792h0.78v-8.508z" fill="#176fc1"/></g><g transform="translate(128.8 330.1)"><path d="m0 0c-0.216-0.1-0.4-0.236-0.552-0.408s-0.266-0.376-0.341-0.611c-0.077-0.237-0.115-0.487-0.115-0.75 0-0.264 0.04-0.512 0.12-0.745 0.08-0.232 0.194-0.431 0.342-0.599s0.332-0.303 0.552-0.403 0.47-0.15 0.75-0.15 0.526 0.05 0.738 0.15 0.39 0.239 0.534 0.414c0.144 0.176 0.254 0.378 0.33 0.606s0.114 0.467 0.114 0.715c0 0.263-0.034 0.513-0.102 0.75-0.068 0.235-0.174 0.439-0.318 0.611s-0.324 0.311-0.54 0.414c-0.216 0.104-0.468 0.156-0.756 0.156s-0.54-0.05-0.756-0.15m1.848 2.838c-0.248 0.232-0.576 0.348-0.984 0.348-0.432 0-0.78-0.106-1.044-0.318s-0.47-0.479-0.618-0.804c-0.148-0.324-0.25-0.673-0.306-1.05-0.056-0.375-0.088-0.728-0.096-1.056l0.024-0.024c0.24 0.392 0.538 0.675 0.894 0.852 0.356 0.176 0.766 0.265 1.23 0.265 0.408 0 0.774-0.07 1.098-0.211 0.324-0.14 0.596-0.334 0.816-0.582s0.391-0.539 0.51-0.875c0.12-0.337 0.18-0.701 0.18-1.093 0-0.311-0.048-0.636-0.144-0.972s-0.254-0.642-0.474-0.918-0.512-0.503-0.876-0.683c-0.364-0.181-0.814-0.271-1.35-0.271-0.632 0-1.14 0.128-1.524 0.384s-0.68 0.584-0.888 0.984-0.346 0.84-0.414 1.321c-0.068 0.479-0.102 0.943-0.102 1.391 0 0.583 0.05 1.15 0.15 1.699 0.1 0.547 0.27 1.033 0.511 1.457 0.239 0.424 0.559 0.763 0.959 1.02 0.4 0.256 0.904 0.384 1.512 0.384 0.704 0 1.264-0.186 1.68-0.558s0.656-0.91 0.72-1.614h-1.02c-0.048 0.385-0.196 0.692-0.444 0.924" fill="#176fc1"/></g><g transform="translate(138.3 329.7)"><path d="m0 0c-0.076 0.275-0.192 0.521-0.348 0.738-0.156 0.216-0.356 0.388-0.6 0.516s-0.531 0.192-0.858 0.192c-0.344 0-0.636-0.068-0.876-0.204-0.24-0.137-0.436-0.314-0.588-0.534s-0.262-0.47-0.33-0.75c-0.069-0.28-0.102-0.563-0.102-0.853 0-0.303 0.036-0.597 0.108-0.88 0.071-0.286 0.186-0.536 0.341-0.75 0.157-0.217 0.358-0.391 0.607-0.523 0.247-0.132 0.548-0.198 0.9-0.198 0.351 0 0.646 0.068 0.882 0.204s0.425 0.315 0.569 0.54c0.145 0.224 0.249 0.481 0.312 0.768 0.064 0.289 0.097 0.584 0.097 0.888 0 0.287-0.038 0.571-0.114 0.846m-3.666 2.202v-0.841h0.024c0.168 0.345 0.431 0.595 0.792 0.75 0.36 0.157 0.756 0.235 1.188 0.235 0.48 0 0.898-0.088 1.254-0.264s0.652-0.414 0.888-0.714 0.413-0.646 0.534-1.038c0.12-0.392 0.18-0.809 0.18-1.248s-0.058-0.855-0.175-1.248c-0.115-0.393-0.292-0.734-0.527-1.025-0.236-0.293-0.533-0.523-0.888-0.691-0.357-0.168-0.771-0.252-1.242-0.252-0.153 0-0.323 0.017-0.511 0.048-0.188 0.032-0.374 0.084-0.557 0.156-0.184 0.073-0.359 0.17-0.522 0.294-0.164 0.124-0.302 0.279-0.414 0.462h-0.024v-3.191h-1.02v8.567z" fill="#176fc1"/></g><g transform="translate(140.2 331.9)"><path d="m0 0h1.308l1.488-2.172 1.548 2.172h1.224l-2.136-2.856 2.4-3.348h-1.308l-1.728 2.568-1.728-2.568h-1.236l2.328 3.264z" fill="#176fc1"/></g><path d="m150.2 328.5h-3.468v0.961h3.468z" fill="#176fc1"/><g transform="translate(154.1 325.7)"><path d="m0 0v6.096h-2.208v0.816c0.288 0 0.568 0.022 0.84 0.066 0.272 0.043 0.518 0.125 0.738 0.247 0.22 0.119 0.406 0.283 0.558 0.491s0.256 0.472 0.312 0.792h0.78v-8.508z" fill="#176fc1"/></g><g transform="translate(158.2 332.4)"><path d="m0 0c0.112 0.369 0.286 0.686 0.522 0.955 0.236 0.268 0.53 0.478 0.882 0.629 0.352 0.152 0.752 0.228 1.2 0.228 0.368 0 0.714-0.053 1.038-0.162 0.324-0.107 0.606-0.263 0.846-0.467s0.43-0.458 0.57-0.762 0.21-0.656 0.21-1.056c0-0.377-0.058-0.709-0.174-0.996-0.117-0.289-0.27-0.547-0.462-0.774-0.192-0.228-0.412-0.435-0.66-0.618-0.248-0.184-0.504-0.36-0.768-0.528-0.264-0.16-0.528-0.318-0.792-0.474-0.264-0.157-0.506-0.323-0.726-0.498-0.22-0.176-0.408-0.366-0.564-0.571-0.156-0.203-0.258-0.437-0.306-0.701h4.368v-0.9h-5.556c0.04 0.504 0.13 0.933 0.27 1.29 0.14 0.356 0.318 0.666 0.534 0.93s0.46 0.496 0.732 0.696c0.272 0.199 0.556 0.387 0.852 0.564 0.36 0.224 0.676 0.43 0.948 0.617 0.272 0.188 0.498 0.379 0.678 0.571 0.18 0.191 0.316 0.4 0.408 0.624 0.092 0.223 0.138 0.483 0.138 0.78 0 0.231-0.045 0.441-0.132 0.63-0.088 0.187-0.206 0.35-0.354 0.485-0.148 0.137-0.322 0.24-0.522 0.313-0.2 0.072-0.412 0.107-0.636 0.107-0.297 0-0.55-0.061-0.762-0.185s-0.386-0.286-0.522-0.487c-0.136-0.199-0.234-0.425-0.294-0.677s-0.086-0.506-0.078-0.762h-1.02c-0.024 0.431 0.02 0.832 0.132 1.199" fill="#176fc1"/></g><g transform="translate(165.8 328.8)"><path d="m0 0c0.02-0.395 0.084-0.768 0.192-1.115 0.108-0.348 0.282-0.643 0.522-0.882 0.24-0.24 0.576-0.36 1.008-0.36s0.768 0.12 1.008 0.36c0.24 0.239 0.414 0.534 0.522 0.882 0.108 0.347 0.172 0.72 0.192 1.115 0.02 0.397 0.03 0.755 0.03 1.074 0 0.209-2e-3 0.439-6e-3 0.691s-0.024 0.503-0.06 0.756c-0.036 0.252-0.088 0.497-0.156 0.738-0.068 0.239-0.168 0.45-0.3 0.63-0.132 0.179-0.298 0.326-0.498 0.437-0.2 0.113-0.444 0.168-0.732 0.168s-0.532-0.055-0.732-0.168c-0.2-0.111-0.366-0.258-0.498-0.437-0.132-0.18-0.232-0.391-0.3-0.63-0.068-0.241-0.12-0.486-0.156-0.738-0.036-0.253-0.056-0.504-0.06-0.756s-6e-3 -0.482-6e-3 -0.691c0-0.319 0.01-0.677 0.03-1.074m-1.086 2.035c0.016 0.336 0.056 0.664 0.12 0.983 0.064 0.32 0.156 0.625 0.276 0.913s0.284 0.54 0.492 0.756c0.208 0.215 0.47 0.387 0.786 0.516 0.316 0.127 0.694 0.192 1.134 0.192s0.818-0.065 1.134-0.192c0.316-0.129 0.578-0.301 0.786-0.516 0.208-0.216 0.372-0.468 0.492-0.756s0.212-0.593 0.276-0.913c0.064-0.319 0.104-0.647 0.12-0.983s0.024-0.66 0.024-0.973c0-0.312-8e-3 -0.635-0.024-0.971s-0.056-0.664-0.12-0.984-0.156-0.623-0.276-0.906c-0.12-0.285-0.284-0.535-0.492-0.75-0.208-0.217-0.468-0.387-0.78-0.51-0.312-0.125-0.692-0.186-1.14-0.186-0.44 0-0.818 0.061-1.134 0.186-0.316 0.123-0.578 0.293-0.786 0.51-0.208 0.215-0.372 0.465-0.492 0.75-0.12 0.283-0.212 0.586-0.276 0.906s-0.104 0.648-0.12 0.984-0.024 0.659-0.024 0.971c0 0.313 8e-3 0.637 0.024 0.973" fill="#176fc1"/></g><g transform="translate(176.3 329.7)"><path d="m0 0c-0.076 0.275-0.192 0.521-0.348 0.738-0.156 0.216-0.356 0.388-0.6 0.516s-0.531 0.192-0.858 0.192c-0.344 0-0.636-0.068-0.876-0.204-0.24-0.137-0.436-0.314-0.588-0.534s-0.262-0.47-0.33-0.75c-0.069-0.28-0.102-0.563-0.102-0.853 0-0.303 0.036-0.597 0.108-0.88 0.071-0.286 0.186-0.536 0.342-0.75 0.156-0.217 0.357-0.391 0.606-0.523 0.248-0.132 0.548-0.198 0.9-0.198 0.351 0 0.646 0.068 0.882 0.204s0.425 0.315 0.57 0.54c0.144 0.224 0.248 0.481 0.312 0.768 0.063 0.289 0.096 0.584 0.096 0.888 0 0.287-0.038 0.571-0.114 0.846m-3.666 2.202v-0.841h0.024c0.168 0.345 0.431 0.595 0.792 0.75 0.36 0.157 0.756 0.235 1.188 0.235 0.48 0 0.898-0.088 1.254-0.264s0.652-0.414 0.888-0.714 0.413-0.646 0.534-1.038c0.12-0.392 0.18-0.809 0.18-1.248s-0.058-0.855-0.174-1.248-0.293-0.734-0.528-1.025c-0.236-0.293-0.532-0.523-0.888-0.691s-0.771-0.252-1.242-0.252c-0.152 0-0.323 0.017-0.51 0.048-0.188 0.032-0.375 0.084-0.558 0.156-0.184 0.073-0.358 0.17-0.522 0.294s-0.302 0.279-0.414 0.462h-0.024v-3.191h-1.02v8.567z" fill="#176fc1"/></g><g transform="translate(178.2 331.9)"><path d="m0 0h1.308l1.488-2.172 1.548 2.172h1.224l-2.136-2.856 2.4-3.348h-1.308l-1.728 2.568-1.728-2.568h-1.236l2.328 3.264z" fill="#176fc1"/></g><g transform="translate(335.6 348.7)"><path d="m0 0v-7.607h4.536v-0.961h-5.676v8.568z" fill="#176fc1"/></g><g transform="translate(344.3 343.1)"><path d="m0 0c-0.209-0.044-0.426-0.08-0.654-0.107-0.229-0.029-0.459-0.061-0.691-0.096-0.231-0.037-0.44-0.095-0.624-0.174-0.183-0.08-0.334-0.195-0.449-0.343-0.117-0.147-0.174-0.35-0.174-0.606 0-0.168 0.034-0.31 0.102-0.426 0.067-0.115 0.156-0.209 0.264-0.281 0.107-0.072 0.236-0.125 0.384-0.156 0.148-0.033 0.297-0.049 0.45-0.049 0.335 0 0.624 0.047 0.864 0.138 0.239 0.092 0.435 0.208 0.588 0.348 0.151 0.141 0.264 0.293 0.336 0.457 0.071 0.163 0.108 0.317 0.108 0.461v1.045c-0.129-0.097-0.297-0.166-0.504-0.211m1.428-3.125c-0.264 0-0.475 0.073-0.631 0.221-0.155 0.148-0.233 0.39-0.233 0.726-0.281-0.336-0.607-0.578-0.978-0.726-0.373-0.148-0.774-0.221-1.207-0.221-0.279 0-0.543 0.029-0.791 0.09-0.248 0.059-0.467 0.16-0.654 0.299-0.188 0.14-0.336 0.32-0.444 0.541-0.109 0.219-0.162 0.486-0.162 0.798 0 0.351 0.06 0.639 0.18 0.864 0.119 0.223 0.277 0.405 0.474 0.545 0.196 0.14 0.419 0.246 0.671 0.318s0.511 0.133 0.775 0.18c0.279 0.056 0.546 0.098 0.798 0.127 0.252 0.027 0.473 0.067 0.666 0.119 0.192 0.053 0.343 0.129 0.456 0.228 0.111 0.1 0.168 0.246 0.168 0.438 0 0.224-0.042 0.404-0.126 0.541-0.084 0.135-0.193 0.239-0.324 0.311-0.132 0.072-0.281 0.121-0.445 0.144-0.164 0.024-0.326 0.037-0.485 0.037-0.433 0-0.792-0.083-1.08-0.246-0.288-0.164-0.445-0.475-0.468-0.931h-1.021c0.017 0.384 0.097 0.708 0.241 0.972 0.143 0.264 0.336 0.479 0.575 0.643 0.24 0.164 0.517 0.281 0.828 0.353 0.313 0.072 0.641 0.108 0.984 0.108 0.281 0 0.559-0.02 0.834-0.059 0.277-0.041 0.527-0.123 0.75-0.246 0.225-0.125 0.405-0.299 0.54-0.523 0.136-0.223 0.205-0.516 0.205-0.876v-3.191c0-0.24 0.013-0.416 0.042-0.529 0.028-0.112 0.122-0.168 0.282-0.168 0.088 0 0.191 0.02 0.312 0.06v-0.792c-0.177-0.104-0.42-0.155-0.732-0.155" fill="#176fc1"/></g><g transform="translate(348.4 346.3)"><path d="m0 0v-1.309h0.023c0.249 0.504 0.553 0.876 0.913 1.117 0.36 0.239 0.816 0.351 1.369 0.335v-1.08c-0.408 0-0.756-0.055-1.045-0.168-0.287-0.112-0.52-0.276-0.695-0.492-0.176-0.215-0.305-0.477-0.385-0.786-0.08-0.308-0.119-0.662-0.119-1.062v-2.76h-1.021v6.205z" fill="#176fc1"/></g><g transform="translate(354.5 341.1)"><path d="m0 0c0.236 0.139 0.426 0.323 0.57 0.551 0.145 0.228 0.25 0.486 0.319 0.774 0.067 0.288 0.101 0.576 0.101 0.864 0 0.272-0.031 0.54-0.095 0.805-0.065 0.264-0.166 0.502-0.307 0.713-0.14 0.213-0.322 0.383-0.545 0.51-0.225 0.129-0.496 0.193-0.816 0.193-0.329 0-0.609-0.062-0.84-0.186-0.233-0.124-0.422-0.29-0.571-0.499-0.148-0.207-0.255-0.448-0.324-0.719-0.068-0.273-0.101-0.557-0.101-0.853 0-0.28 0.027-0.559 0.084-0.84 0.055-0.28 0.152-0.534 0.287-0.762 0.136-0.228 0.316-0.412 0.541-0.551 0.223-0.141 0.504-0.211 0.84-0.211s0.621 0.07 0.857 0.211m1.303-2.791c-0.465-0.504-1.193-0.756-2.184-0.756-0.289 0-0.582 0.032-0.883 0.096-0.299 0.064-0.572 0.168-0.816 0.312-0.244 0.145-0.445 0.332-0.606 0.565-0.16 0.232-0.248 0.515-0.263 0.851h1.019c8e-3 -0.183 0.067-0.34 0.174-0.467 0.109-0.128 0.24-0.232 0.397-0.312 0.156-0.08 0.326-0.139 0.509-0.175 0.184-0.036 0.36-0.053 0.528-0.053 0.337 0 0.621 0.058 0.852 0.173 0.232 0.117 0.425 0.276 0.576 0.481 0.152 0.203 0.262 0.449 0.331 0.738 0.067 0.287 0.102 0.604 0.102 0.947v0.409h-0.024c-0.177-0.385-0.443-0.666-0.798-0.846-0.357-0.181-0.735-0.271-1.135-0.271-0.464 0-0.867 0.084-1.211 0.252-0.345 0.168-0.633 0.394-0.865 0.679-0.231 0.283-0.406 0.615-0.522 0.996-0.116 0.379-0.173 0.781-0.173 1.205 0 0.368 0.047 0.746 0.144 1.135 0.096 0.387 0.256 0.739 0.48 1.056 0.223 0.315 0.52 0.575 0.887 0.78 0.368 0.203 0.821 0.306 1.356 0.306 0.392 0 0.752-0.087 1.08-0.259s0.584-0.43 0.768-0.774h0.013v0.889h0.959v-5.677c0-1.015-0.232-1.776-0.695-2.28" fill="#176fc1"/></g><g transform="translate(362.1 344.5)"><path d="m0 0c-0.092 0.216-0.215 0.402-0.371 0.558s-0.341 0.28-0.553 0.372c-0.212 0.091-0.445 0.138-0.701 0.138-0.265 0-0.503-0.047-0.715-0.138-0.212-0.092-0.394-0.219-0.546-0.378-0.151-0.16-0.272-0.347-0.36-0.558-0.088-0.213-0.14-0.438-0.155-0.679h3.563c-0.015 0.241-0.07 0.468-0.162 0.685m0.246-3.984c-0.464-0.352-1.048-0.528-1.752-0.528-0.496 0-0.926 0.08-1.289 0.24-0.365 0.16-0.671 0.383-0.918 0.671-0.248 0.288-0.434 0.632-0.558 1.033-0.125 0.4-0.195 0.836-0.21 1.308 0 0.471 0.071 0.904 0.215 1.295 0.145 0.393 0.346 0.733 0.606 1.021s0.568 0.511 0.925 0.672c0.355 0.16 0.745 0.24 1.17 0.24 0.551 0 1.009-0.114 1.374-0.343 0.363-0.228 0.656-0.518 0.876-0.869 0.219-0.353 0.372-0.736 0.456-1.152s0.117-0.813 0.101-1.188h-4.643c-9e-3 -0.272 0.024-0.53 0.095-0.774 0.073-0.245 0.189-0.46 0.349-0.648 0.159-0.188 0.363-0.338 0.611-0.451 0.248-0.111 0.54-0.168 0.876-0.168 0.433 0 0.786 0.1 1.062 0.301 0.277 0.199 0.459 0.504 0.547 0.912h1.008c-0.137-0.696-0.436-1.221-0.901-1.572" fill="#176fc1"/></g><g transform="translate(365.4 346.3)"><path d="m0 0v-1.309h0.023c0.248 0.504 0.553 0.876 0.912 1.117 0.36 0.239 0.817 0.351 1.369 0.335v-1.08c-0.409 0-0.756-0.055-1.044-0.168-0.288-0.112-0.521-0.276-0.697-0.492-0.175-0.215-0.303-0.477-0.383-0.786-0.08-0.308-0.12-0.662-0.12-1.062v-2.76h-1.021v6.205z" fill="#176fc1"/></g><g transform="translate(318.3 331)"><path d="m0 0v0.9h1.044v0.924c0 0.504 0.145 0.887 0.438 1.147 0.291 0.259 0.717 0.389 1.278 0.389 0.095 0 0.206-8e-3 0.33-0.024s0.234-0.039 0.33-0.072v-0.887c-0.088 0.031-0.184 0.053-0.288 0.065-0.105 0.012-0.2 0.019-0.288 0.019-0.248 0-0.44-0.049-0.576-0.145-0.136-0.095-0.204-0.28-0.204-0.552v-0.864h1.2v-0.9h-1.2v-5.304h-1.02v5.304z" fill="#176fc1"/></g><g transform="translate(323.3 327.8)"><path d="m0 0c0.1-0.293 0.237-0.537 0.414-0.732 0.176-0.197 0.381-0.346 0.617-0.451 0.237-0.104 0.487-0.156 0.75-0.156 0.264 0 0.514 0.052 0.75 0.156 0.237 0.105 0.442 0.254 0.618 0.451 0.176 0.195 0.314 0.439 0.415 0.732 0.1 0.291 0.149 0.625 0.149 1.002 0 0.375-0.049 0.709-0.149 1.002-0.101 0.291-0.239 0.537-0.415 0.737s-0.381 0.353-0.618 0.456c-0.236 0.104-0.486 0.156-0.75 0.156-0.263 0-0.513-0.052-0.75-0.156-0.236-0.103-0.441-0.256-0.617-0.456-0.177-0.2-0.314-0.446-0.414-0.737-0.101-0.293-0.15-0.627-0.15-1.002 0-0.377 0.049-0.711 0.15-1.002m-1.039 2.279c0.129 0.397 0.32 0.741 0.576 1.032 0.256 0.292 0.572 0.523 0.948 0.691s0.808 0.252 1.296 0.252c0.496 0 0.93-0.084 1.303-0.252 0.371-0.168 0.686-0.399 0.941-0.691 0.256-0.291 0.448-0.635 0.577-1.032 0.128-0.396 0.191-0.822 0.191-1.277 0-0.457-0.063-0.881-0.191-1.273-0.129-0.391-0.321-0.734-0.577-1.026-0.255-0.292-0.57-0.519-0.941-0.683-0.373-0.165-0.807-0.247-1.303-0.247-0.488 0-0.92 0.082-1.296 0.247-0.376 0.164-0.692 0.391-0.948 0.683s-0.447 0.635-0.576 1.026c-0.127 0.392-0.191 0.816-0.191 1.273 0 0.455 0.064 0.881 0.191 1.277" fill="#176fc1"/></g><g transform="translate(330.2 331.9)"><path d="m0 0v-1.309h0.023c0.248 0.504 0.553 0.877 0.913 1.118 0.359 0.239 0.816 0.351 1.368 0.336v-1.081c-0.408 0-0.756-0.056-1.044-0.167-0.288-0.114-0.521-0.277-0.697-0.493-0.175-0.216-0.303-0.478-0.383-0.787-0.08-0.306-0.12-0.661-0.12-1.061v-2.76h-1.021v6.204z" fill="#176fc1"/></g><g transform="translate(339.1 325.7)"><path d="m0 0v6.097h-2.207v0.815c0.287 0 0.567 0.023 0.84 0.066 0.271 0.044 0.517 0.127 0.738 0.246 0.219 0.121 0.405 0.284 0.558 0.492 0.151 0.208 0.256 0.473 0.311 0.792h0.78v-8.508z" fill="#176fc1"/></g><g transform="translate(343.2 332.4)"><path d="m0 0c0.112 0.367 0.286 0.685 0.522 0.953 0.236 0.269 0.53 0.479 0.881 0.631 0.353 0.151 0.752 0.227 1.201 0.227 0.368 0 0.713-0.053 1.038-0.161 0.324-0.109 0.606-0.264 0.845-0.468 0.241-0.204 0.431-0.458 0.571-0.762 0.14-0.305 0.211-0.656 0.211-1.057 0-0.375-0.059-0.707-0.175-0.996-0.116-0.287-0.271-0.545-0.462-0.773-0.192-0.229-0.412-0.434-0.66-0.618-0.248-0.185-0.504-0.361-0.768-0.529-0.264-0.16-0.528-0.317-0.793-0.473-0.264-0.156-0.506-0.323-0.724-0.498-0.221-0.176-0.409-0.367-0.565-0.57-0.156-0.205-0.258-0.438-0.307-0.703h4.37v-0.899h-5.557c0.04 0.504 0.13 0.934 0.269 1.29 0.141 0.355 0.319 0.666 0.535 0.929 0.215 0.264 0.46 0.497 0.732 0.697s0.556 0.387 0.852 0.563c0.36 0.225 0.676 0.431 0.948 0.619 0.271 0.188 0.498 0.377 0.678 0.57 0.179 0.192 0.316 0.399 0.408 0.624 0.092 0.224 0.139 0.484 0.139 0.779 0 0.232-0.045 0.443-0.133 0.631-0.088 0.187-0.206 0.349-0.354 0.486-0.148 0.135-0.322 0.24-0.522 0.312-0.201 0.071-0.412 0.108-0.636 0.108-0.297 0-0.551-0.062-0.762-0.186-0.213-0.124-0.386-0.287-0.522-0.486-0.136-0.201-0.234-0.426-0.294-0.679-0.061-0.252-0.086-0.505-0.078-0.761h-1.02c-0.024 0.432 0.02 0.832 0.132 1.2" fill="#176fc1"/></g><g transform="translate(350.8 328.8)"><path d="m0 0c0.02-0.396 0.084-0.768 0.191-1.116 0.109-0.349 0.283-0.642 0.523-0.882 0.239-0.24 0.575-0.36 1.008-0.36 0.432 0 0.768 0.12 1.008 0.36s0.414 0.533 0.522 0.882c0.107 0.348 0.172 0.72 0.191 1.116 0.02 0.396 0.031 0.754 0.031 1.074 0 0.207-2e-3 0.438-6e-3 0.69-5e-3 0.252-0.025 0.504-0.06 0.756-0.037 0.251-0.088 0.498-0.156 0.738s-0.168 0.449-0.301 0.63c-0.131 0.18-0.297 0.325-0.498 0.438-0.199 0.111-0.443 0.168-0.731 0.168s-0.533-0.057-0.732-0.168c-0.201-0.113-0.367-0.258-0.498-0.438-0.133-0.181-0.232-0.39-0.301-0.63-0.068-0.24-0.119-0.487-0.156-0.738-0.035-0.252-0.056-0.504-0.059-0.756-4e-3 -0.252-6e-3 -0.483-6e-3 -0.69 0-0.32 9e-3 -0.678 0.03-1.074m-1.086 2.033c0.016 0.336 0.056 0.664 0.119 0.985 0.065 0.32 0.156 0.624 0.277 0.912 0.12 0.288 0.284 0.54 0.492 0.756s0.469 0.388 0.786 0.515c0.316 0.129 0.693 0.193 1.134 0.193 0.44 0 0.817-0.064 1.133-0.193 0.317-0.127 0.579-0.299 0.787-0.515s0.372-0.468 0.492-0.756 0.212-0.592 0.276-0.912c0.064-0.321 0.104-0.649 0.119-0.985 0.017-0.336 0.025-0.66 0.025-0.971 0-0.312-8e-3 -0.636-0.025-0.972-0.015-0.336-0.055-0.664-0.119-0.985-0.064-0.32-0.156-0.622-0.276-0.906-0.12-0.283-0.284-0.533-0.492-0.75-0.208-0.215-0.468-0.386-0.781-0.51-0.311-0.123-0.691-0.185-1.139-0.185-0.441 0-0.818 0.062-1.134 0.185-0.317 0.124-0.578 0.295-0.786 0.51-0.208 0.217-0.372 0.467-0.492 0.75-0.121 0.284-0.212 0.586-0.277 0.906-0.063 0.321-0.103 0.649-0.119 0.985-0.017 0.336-0.024 0.66-0.024 0.972 0 0.311 7e-3 0.635 0.024 0.971" fill="#176fc1"/></g><g transform="translate(361.4 329.7)"><path d="m0 0c-0.076 0.276-0.192 0.522-0.349 0.738-0.156 0.216-0.355 0.388-0.599 0.516s-0.531 0.192-0.858 0.192c-0.344 0-0.636-0.068-0.877-0.204-0.24-0.136-0.435-0.313-0.588-0.534-0.152-0.221-0.261-0.471-0.33-0.75-0.068-0.28-0.101-0.564-0.101-0.852 0-0.304 0.036-0.598 0.107-0.882 0.073-0.284 0.187-0.534 0.342-0.75 0.156-0.216 0.358-0.39 0.607-0.522 0.248-0.133 0.547-0.198 0.9-0.198 0.351 0 0.645 0.067 0.882 0.204 0.236 0.136 0.425 0.317 0.57 0.54 0.144 0.224 0.248 0.48 0.312 0.769 0.063 0.287 0.096 0.584 0.096 0.886 0 0.289-0.039 0.571-0.114 0.847m-3.666 2.202v-0.84h0.024c0.168 0.344 0.432 0.594 0.791 0.75 0.361 0.157 0.756 0.235 1.189 0.235 0.479 0 0.897-0.089 1.254-0.265 0.356-0.177 0.651-0.414 0.887-0.714 0.237-0.301 0.414-0.646 0.535-1.038 0.12-0.392 0.18-0.808 0.18-1.248s-0.058-0.856-0.174-1.248c-0.117-0.392-0.292-0.733-0.529-1.026-0.235-0.291-0.531-0.522-0.887-0.69-0.357-0.168-0.771-0.252-1.242-0.252-0.152 0-0.322 0.016-0.51 0.048-0.189 0.032-0.374 0.084-0.558 0.155-0.184 0.073-0.358 0.17-0.522 0.295-0.164 0.123-0.302 0.278-0.414 0.462h-0.024v-3.192h-1.021v8.568z" fill="#176fc1"/></g><g transform="translate(363.3 331.9)"><path d="m0 0h1.309l1.487-2.172 1.548 2.172h1.224l-2.136-2.855 2.4-3.349h-1.309l-1.727 2.567-1.728-2.567h-1.236l2.328 3.265z" fill="#176fc1"/></g><g transform="translate(379.2 329.1)"><path d="m0 0v-0.816h-2.616v-2.628h-0.816v2.628h-2.616v0.816h2.616v2.627h0.816v-2.627z" fill="#176fc1"/></g><g transform="translate(152.6 168.5)"><path d="m0 0c-8.995 0-16.29-7.293-16.29-16.29 0-7.197 4.667-13.3 11.14-15.46 0.815-0.149 1.112 0.354 1.112 0.786 0 0.386-0.014 1.411-0.022 2.77-4.531-0.984-5.487 2.184-5.487 2.184-0.741 1.882-1.809 2.383-1.809 2.383-1.479 1.01 0.112 0.99 0.112 0.99 1.635-0.115 2.495-1.679 2.495-1.679 1.453-2.489 3.813-1.77 4.741-1.353 0.148 1.052 0.568 1.77 1.034 2.177-3.617 0.411-7.42 1.809-7.42 8.051 0 1.778 0.635 3.232 1.677 4.371-0.168 0.412-0.727 2.068 0.159 4.311 0 0 1.368 0.438 4.48-1.67 1.299 0.362 2.693 0.542 4.078 0.548 1.383-6e-3 2.777-0.186 4.078-0.548 3.11 2.108 4.475 1.67 4.475 1.67 0.889-2.243 0.33-3.899 0.162-4.311 1.044-1.139 1.675-2.593 1.675-4.371 0-6.258-3.809-7.635-7.438-8.038 0.585-0.503 1.106-1.497 1.106-3.017 0-2.177-0.02-3.934-0.02-4.468 0-0.436 0.293-0.943 1.12-0.784 6.468 2.159 11.13 8.26 11.13 15.46 0 8.997-7.294 16.29-16.29 16.29" fill="#fff" fill-rule="evenodd"/></g><g transform="translate(350.6 217.6)"><path d="m0 0c-33.35 0-60.39-27.04-60.39-60.39 0-26.68 17.3-49.32 41.3-57.3 3.018-0.559 4.126 1.31 4.126 2.905 0 1.439-0.056 6.197-0.082 11.24-16.8-3.653-20.34 7.125-20.34 7.125-2.747 6.979-6.705 8.836-6.705 8.836-5.479 3.748 0.413 3.671 0.413 3.671 6.064-0.426 9.257-6.224 9.257-6.224 5.386-9.231 14.13-6.562 17.57-5.019 0.543 3.902 2.107 6.567 3.834 8.075-13.41 1.526-27.51 6.705-27.51 29.84 0 6.592 2.359 11.98 6.222 16.21-0.627 1.522-2.694 7.664 0.586 15.98 0 0 5.071 1.622 16.61-6.191 4.817 1.338 9.983 2.009 15.12 2.033 5.132-0.024 10.3-0.695 15.13-2.033 11.53 7.813 16.59 6.191 16.59 6.191 3.287-8.318 1.22-14.46 0.593-15.98 3.872-4.229 6.214-9.616 6.214-16.21 0-23.2-14.13-28.3-27.57-29.8 2.166-1.874 4.096-5.549 4.096-11.18 0-8.08-0.069-14.58-0.069-16.57 0-1.608 1.086-3.491 4.147-2.898 23.98 7.994 41.26 30.62 41.26 57.29 0 33.35-27.04 60.39-60.39 60.39" fill="#fff" fill-rule="evenodd"/></g><g transform="translate(313.1 130.9)"><path d="m0 0c-0.133-0.301-0.605-0.391-1.035-0.184-0.439 0.197-0.684 0.606-0.542 0.907 0.13 0.308 0.602 0.394 1.04 0.188 0.438-0.197 0.688-0.61 0.537-0.911" fill="#fff"/></g><g transform="translate(315.5 128.1)"><path d="m0 0c-0.288-0.267-0.852-0.143-1.233 0.279-0.396 0.421-0.469 0.985-0.177 1.255 0.297 0.267 0.843 0.142 1.238-0.279 0.396-0.426 0.473-0.985 0.172-1.255" fill="#fff"/></g><g transform="translate(317.9 124.6)"><path d="m0 0c-0.37-0.258-0.976-0.017-1.35 0.52-0.37 0.538-0.37 1.182 9e-3 1.44 0.374 0.258 0.971 0.025 1.35-0.507 0.369-0.546 0.369-1.19-9e-3 -1.453" fill="#fff"/></g><g transform="translate(321.2 121.3)"><path d="m0 0c-0.331-0.365-1.036-0.267-1.552 0.231-0.528 0.487-0.675 1.178-0.344 1.543 0.336 0.366 1.045 0.263 1.565-0.231 0.524-0.486 0.683-1.182 0.331-1.543" fill="#fff"/></g><g transform="translate(325.7 119.3)"><path d="m0 0c-0.147-0.473-0.825-0.687-1.509-0.486-0.683 0.207-1.13 0.76-0.992 1.238 0.142 0.477 0.824 0.7 1.513 0.485 0.682-0.206 1.13-0.756 0.988-1.237" fill="#fff"/></g><g transform="translate(330.6 119)"><path d="m0 0c0.017-0.498-0.563-0.911-1.281-0.92-0.722-0.017-1.307 0.387-1.315 0.877 0 0.503 0.568 0.911 1.289 0.924 0.718 0.014 1.307-0.387 1.307-0.881" fill="#fff"/></g><g transform="translate(335.2 119.8)"><path d="m0 0c0.086-0.485-0.413-0.984-1.126-1.117-0.701-0.129-1.35 0.172-1.439 0.653-0.087 0.498 0.42 0.997 1.121 1.126 0.714 0.124 1.353-0.168 1.444-0.662" fill="#fff"/></g><g transform="translate(224.9 223.5)"><path d="m0 0v-0.5" fill="none" stroke="#3a7fc3" stroke-linecap="round" stroke-miterlimit="10"/></g><g transform="translate(224.9 221)"><path d="m0 0v-134" fill="none" stroke="#3a7fc3" stroke-dasharray="1, 2" stroke-linecap="round" stroke-miterlimit="10"/></g><g transform="translate(224.9 86)"><path d="m0 0v-0.5" fill="none" stroke="#3a7fc3" stroke-linecap="round" stroke-miterlimit="10"/></g><g transform="translate(133.3 71.48)"><path d="m0 0c-0.38 0.276-0.866 0.414-1.458 0.414-0.24 0-0.476-0.024-0.708-0.071-0.232-0.049-0.438-0.129-0.618-0.241-0.18-0.113-0.324-0.262-0.432-0.451-0.108-0.187-0.162-0.422-0.162-0.701 0-0.264 0.078-0.478 0.234-0.642 0.156-0.165 0.364-0.298 0.624-0.402s0.554-0.19 0.882-0.259c0.328-0.067 0.662-0.141 1.002-0.22 0.34-0.08 0.674-0.175 1.002-0.284 0.328-0.107 0.622-0.253 0.882-0.437s0.468-0.416 0.624-0.695c0.156-0.282 0.234-0.633 0.234-1.057 0-0.456-0.102-0.846-0.306-1.17s-0.466-0.588-0.786-0.792-0.678-0.352-1.074-0.444-0.79-0.138-1.182-0.138c-0.48 0-0.934 0.06-1.362 0.18s-0.804 0.302-1.128 0.546-0.58 0.556-0.768 0.936-0.282 0.829-0.282 1.35h1.08c0-0.361 0.07-0.67 0.21-0.93 0.14-0.261 0.324-0.474 0.552-0.642 0.228-0.167 0.494-0.292 0.798-0.373 0.304-0.08 0.616-0.119 0.936-0.119 0.256 0 0.514 0.024 0.774 0.073 0.26 0.046 0.494 0.128 0.702 0.246 0.208 0.115 0.376 0.273 0.504 0.472 0.128 0.201 0.192 0.457 0.192 0.769 0 0.296-0.078 0.536-0.234 0.72-0.156 0.183-0.364 0.334-0.624 0.45s-0.554 0.21-0.882 0.282-0.662 0.147-1.002 0.223c-0.34 0.075-0.674 0.163-1.002 0.263s-0.622 0.232-0.882 0.396-0.468 0.376-0.624 0.636c-0.156 0.259-0.234 0.586-0.234 0.978 0 0.432 0.088 0.806 0.264 1.122s0.41 0.575 0.702 0.78c0.292 0.204 0.624 0.356 0.996 0.456s0.754 0.15 1.146 0.15c0.44 0 0.848-0.053 1.224-0.156 0.376-0.104 0.706-0.268 0.99-0.493 0.284-0.223 0.508-0.505 0.672-0.845s0.254-0.746 0.27-1.218h-1.08c-0.064 0.616-0.286 1.062-0.666 1.338" fill="#176fc1"/></g><g transform="translate(137.6 70.29)"><path d="m0 0v-0.912h0.024c0.464 0.705 1.132 1.057 2.004 1.057 0.384 0 0.732-0.081 1.044-0.241s0.532-0.431 0.66-0.816c0.208 0.336 0.482 0.596 0.822 0.78 0.34 0.185 0.714 0.277 1.122 0.277 0.312 0 0.594-0.035 0.846-0.102 0.252-0.068 0.468-0.175 0.648-0.318 0.18-0.145 0.32-0.33 0.42-0.559 0.1-0.228 0.15-0.502 0.15-0.822v-4.547h-1.02v4.067c0 0.193-0.016 0.372-0.048 0.54s-0.092 0.315-0.18 0.438c-0.088 0.125-0.21 0.222-0.366 0.295-0.156 0.072-0.358 0.107-0.606 0.107-0.504 0-0.9-0.143-1.188-0.431-0.288-0.289-0.432-0.672-0.432-1.153v-3.863h-1.02v4.067c0 0.2-0.018 0.384-0.054 0.552s-0.098 0.314-0.186 0.438c-0.088 0.125-0.206 0.22-0.354 0.289-0.148 0.068-0.338 0.101-0.57 0.101-0.296 0-0.55-0.059-0.762-0.18-0.212-0.12-0.384-0.263-0.516-0.431s-0.228-0.342-0.288-0.523c-0.06-0.18-0.09-0.33-0.09-0.45v-3.863h-1.02v6.203z" fill="#176fc1"/></g><g transform="translate(150.2 67.08)"><path d="m0 0c-0.208-0.045-0.426-0.08-0.654-0.108-0.228-0.029-0.458-0.06-0.69-0.097-0.232-0.035-0.44-0.094-0.624-0.174s-0.334-0.193-0.45-0.342c-0.116-0.148-0.174-0.349-0.174-0.605 0-0.168 0.034-0.311 0.102-0.426 0.068-0.117 0.156-0.211 0.264-0.283 0.108-0.071 0.236-0.123 0.384-0.155 0.148-0.033 0.298-0.048 0.45-0.048 0.336 0 0.624 0.045 0.864 0.137s0.436 0.208 0.588 0.349c0.152 0.139 0.264 0.291 0.336 0.455s0.108 0.318 0.108 0.463v1.043c-0.128-0.096-0.296-0.166-0.504-0.209m1.428-3.127c-0.264 0-0.474 0.074-0.63 0.223-0.156 0.147-0.234 0.389-0.234 0.725-0.28-0.336-0.606-0.578-0.978-0.725-0.372-0.149-0.774-0.223-1.206-0.223-0.28 0-0.544 0.03-0.792 0.09s-0.466 0.16-0.654 0.301c-0.188 0.139-0.336 0.319-0.444 0.539s-0.162 0.486-0.162 0.799c0 0.351 0.06 0.639 0.18 0.863s0.278 0.406 0.474 0.547c0.196 0.139 0.42 0.246 0.672 0.318 0.252 0.071 0.51 0.131 0.774 0.18 0.28 0.055 0.546 0.097 0.798 0.125s0.474 0.068 0.666 0.121c0.192 0.051 0.344 0.127 0.456 0.227 0.112 0.101 0.168 0.246 0.168 0.439 0 0.223-0.042 0.403-0.126 0.539-0.084 0.137-0.192 0.24-0.324 0.312-0.132 0.073-0.28 0.121-0.444 0.145-0.164 0.023-0.326 0.035-0.486 0.035-0.432 0-0.792-0.082-1.08-0.246s-0.444-0.474-0.468-0.93h-1.02c0.016 0.384 0.096 0.708 0.24 0.973 0.144 0.264 0.336 0.478 0.576 0.642 0.24 0.163 0.516 0.282 0.828 0.354 0.312 0.071 0.64 0.108 0.984 0.108 0.28 0 0.558-0.02 0.834-0.061 0.276-0.039 0.526-0.121 0.75-0.246 0.224-0.123 0.404-0.298 0.54-0.522s0.204-0.515 0.204-0.876v-3.192c0-0.24 0.014-0.416 0.042-0.527 0.028-0.113 0.122-0.168 0.282-0.168 0.088 0 0.192 0.019 0.312 0.059v-0.792c-0.176-0.103-0.42-0.156-0.732-0.156" fill="#176fc1"/></g><path d="m154.4 64.08h-1.02v8.567h1.02z" fill="#176fc1"/><path d="m157 64.08h-1.02v8.567h1.02z" fill="#176fc1"/><g transform="translate(101.9 54.99)"><path d="m0 0v0.899h1.044v0.924c0 0.504 0.146 0.886 0.438 1.146s0.718 0.39 1.278 0.39c0.096 0 0.206-7e-3 0.33-0.023 0.124-0.017 0.234-0.041 0.33-0.072v-0.889c-0.088 0.032-0.184 0.055-0.288 0.066-0.104 0.012-0.2 0.018-0.288 0.018-0.248 0-0.44-0.048-0.576-0.144s-0.204-0.28-0.204-0.551v-0.865h1.2v-0.899h-1.2v-5.305h-1.02v5.305z" fill="#176fc1"/></g><g transform="translate(106.9 51.78)"><path d="m0 0c0.1-0.292 0.238-0.535 0.414-0.732 0.176-0.196 0.382-0.346 0.618-0.45 0.236-0.103 0.486-0.156 0.75-0.156s0.514 0.053 0.75 0.156c0.236 0.104 0.442 0.254 0.618 0.45 0.176 0.197 0.314 0.44 0.414 0.732s0.15 0.626 0.15 1.002c0 0.377-0.05 0.71-0.15 1.002-0.1 0.293-0.238 0.538-0.414 0.738-0.176 0.199-0.382 0.352-0.618 0.456-0.236 0.105-0.486 0.156-0.75 0.156s-0.514-0.051-0.75-0.156c-0.236-0.104-0.442-0.257-0.618-0.456-0.176-0.2-0.314-0.445-0.414-0.738-0.1-0.292-0.15-0.625-0.15-1.002 0-0.376 0.05-0.71 0.15-1.002m-1.038 2.28c0.128 0.396 0.32 0.74 0.576 1.033 0.256 0.291 0.572 0.521 0.948 0.689s0.808 0.252 1.296 0.252c0.496 0 0.93-0.084 1.302-0.252s0.686-0.398 0.942-0.689c0.256-0.293 0.448-0.637 0.576-1.033 0.128-0.395 0.192-0.822 0.192-1.278 0-0.455-0.064-0.88-0.192-1.272s-0.32-0.734-0.576-1.026-0.57-0.52-0.942-0.684-0.806-0.246-1.302-0.246c-0.488 0-0.92 0.082-1.296 0.246s-0.692 0.392-0.948 0.684-0.448 0.634-0.576 1.026-0.192 0.817-0.192 1.272c0 0.456 0.064 0.883 0.192 1.278" fill="#176fc1"/></g><g transform="translate(113.8 55.89)"><path d="m0 0v-1.308h0.024c0.248 0.504 0.552 0.875 0.912 1.116 0.36 0.24 0.816 0.351 1.368 0.336v-1.08c-0.408 0-0.756-0.056-1.044-0.168s-0.52-0.276-0.696-0.493c-0.176-0.214-0.304-0.477-0.384-0.785s-0.12-0.662-0.12-1.062v-2.76h-1.02v6.204z" fill="#176fc1"/></g><g transform="translate(122.7 49.68)"><path d="m0 0v6.096h-2.208v0.816c0.288 0 0.568 0.022 0.84 0.067 0.272 0.042 0.518 0.125 0.738 0.246 0.22 0.119 0.406 0.283 0.558 0.491s0.256 0.472 0.312 0.792h0.78v-8.508z" fill="#176fc1"/></g><g transform="translate(128.8 54.1)"><path d="m0 0c-0.216-0.1-0.4-0.236-0.552-0.408s-0.266-0.376-0.341-0.612c-0.077-0.236-0.115-0.486-0.115-0.75 0-0.263 0.04-0.511 0.12-0.744 0.08-0.232 0.194-0.431 0.342-0.599s0.332-0.303 0.552-0.403 0.47-0.15 0.75-0.15 0.526 0.05 0.738 0.15 0.39 0.239 0.534 0.414c0.144 0.176 0.254 0.378 0.33 0.606s0.114 0.467 0.114 0.715c0 0.263-0.034 0.513-0.102 0.75-0.068 0.235-0.174 0.439-0.318 0.611s-0.324 0.311-0.54 0.414c-0.216 0.104-0.468 0.156-0.756 0.156s-0.54-0.05-0.756-0.15m1.848 2.838c-0.248 0.232-0.576 0.348-0.984 0.348-0.432 0-0.78-0.106-1.044-0.318s-0.47-0.479-0.618-0.804c-0.148-0.324-0.25-0.673-0.306-1.05-0.056-0.375-0.088-0.728-0.096-1.056l0.024-0.024c0.24 0.392 0.538 0.675 0.894 0.852 0.356 0.176 0.766 0.265 1.23 0.265 0.408 0 0.774-0.071 1.098-0.211s0.596-0.334 0.816-0.582 0.391-0.539 0.51-0.875c0.12-0.337 0.18-0.701 0.18-1.093 0-0.311-0.048-0.636-0.144-0.972s-0.254-0.642-0.474-0.918-0.512-0.504-0.876-0.683c-0.364-0.181-0.814-0.271-1.35-0.271-0.632 0-1.14 0.128-1.524 0.384s-0.68 0.584-0.888 0.984-0.346 0.84-0.414 1.321c-0.068 0.479-0.102 0.943-0.102 1.391 0 0.583 0.05 1.15 0.15 1.699 0.1 0.546 0.27 1.033 0.511 1.457 0.239 0.423 0.559 0.763 0.959 1.02 0.4 0.256 0.904 0.384 1.512 0.384 0.704 0 1.264-0.186 1.68-0.558s0.656-0.91 0.72-1.614h-1.02c-0.048 0.385-0.196 0.691-0.444 0.924" fill="#176fc1"/></g><g transform="translate(138.3 53.68)"><path d="m0 0c-0.076 0.275-0.192 0.521-0.348 0.738-0.156 0.216-0.356 0.388-0.6 0.516s-0.531 0.192-0.858 0.192c-0.344 0-0.636-0.068-0.876-0.204-0.24-0.137-0.436-0.314-0.588-0.534s-0.262-0.47-0.33-0.75c-0.069-0.28-0.102-0.564-0.102-0.853 0-0.303 0.036-0.597 0.108-0.88 0.071-0.286 0.186-0.536 0.341-0.75 0.157-0.217 0.358-0.391 0.607-0.523 0.247-0.132 0.548-0.198 0.9-0.198 0.351 0 0.646 0.068 0.882 0.204s0.425 0.315 0.569 0.54c0.145 0.224 0.249 0.481 0.312 0.768 0.064 0.289 0.097 0.584 0.097 0.888 0 0.287-0.038 0.571-0.114 0.846m-3.666 2.202v-0.841h0.024c0.168 0.345 0.431 0.595 0.792 0.75 0.36 0.156 0.756 0.235 1.188 0.235 0.48 0 0.898-0.088 1.254-0.264s0.652-0.414 0.888-0.714 0.413-0.646 0.534-1.038c0.12-0.392 0.18-0.809 0.18-1.248 0-0.44-0.058-0.856-0.175-1.248-0.115-0.393-0.292-0.734-0.527-1.025-0.236-0.293-0.533-0.523-0.888-0.691-0.357-0.168-0.771-0.252-1.242-0.252-0.153 0-0.323 0.017-0.511 0.048-0.188 0.032-0.374 0.084-0.557 0.156-0.184 0.072-0.359 0.17-0.522 0.294-0.164 0.124-0.302 0.278-0.414 0.462h-0.024v-3.191h-1.02v8.567z" fill="#176fc1"/></g><g transform="translate(140.2 55.89)"><path d="m0 0h1.308l1.488-2.172 1.548 2.172h1.224l-2.136-2.856 2.4-3.348h-1.308l-1.728 2.568-1.728-2.568h-1.236l2.328 3.264z" fill="#176fc1"/></g><path d="m150.2 52.54h-3.468v0.961h3.468z" fill="#176fc1"/><g transform="translate(154.1 49.68)"><path d="m0 0v6.096h-2.208v0.816c0.288 0 0.568 0.022 0.84 0.067 0.272 0.042 0.518 0.125 0.738 0.246 0.22 0.119 0.406 0.283 0.558 0.491s0.256 0.472 0.312 0.792h0.78v-8.508z" fill="#176fc1"/></g><g transform="translate(158.2 56.38)"><path d="m0 0c0.112 0.369 0.286 0.686 0.522 0.955 0.236 0.268 0.53 0.478 0.882 0.629 0.352 0.152 0.752 0.228 1.2 0.228 0.368 0 0.714-0.053 1.038-0.162 0.324-0.107 0.606-0.263 0.846-0.467s0.43-0.458 0.57-0.762 0.21-0.656 0.21-1.056c0-0.377-0.058-0.709-0.174-0.996-0.117-0.289-0.27-0.547-0.462-0.774-0.192-0.228-0.412-0.435-0.66-0.618-0.248-0.184-0.504-0.36-0.768-0.528-0.264-0.16-0.528-0.318-0.792-0.474-0.264-0.157-0.506-0.323-0.726-0.498-0.22-0.176-0.408-0.366-0.564-0.571-0.156-0.203-0.258-0.437-0.306-0.701h4.368v-0.9h-5.556c0.04 0.504 0.13 0.933 0.27 1.29 0.14 0.356 0.318 0.666 0.534 0.93s0.46 0.495 0.732 0.696c0.272 0.199 0.556 0.387 0.852 0.564 0.36 0.224 0.676 0.43 0.948 0.617 0.272 0.188 0.498 0.379 0.678 0.571 0.18 0.191 0.316 0.4 0.408 0.624 0.092 0.223 0.138 0.483 0.138 0.78 0 0.231-0.045 0.441-0.132 0.63-0.088 0.187-0.206 0.349-0.354 0.485-0.148 0.137-0.322 0.24-0.522 0.313-0.2 0.072-0.412 0.107-0.636 0.107-0.297 0-0.55-0.061-0.762-0.185s-0.386-0.287-0.522-0.487c-0.136-0.199-0.234-0.426-0.294-0.677-0.06-0.252-0.086-0.506-0.078-0.762h-1.02c-0.024 0.431 0.02 0.832 0.132 1.199" fill="#176fc1"/></g><g transform="translate(165.8 52.79)"><path d="m0 0c0.02-0.396 0.084-0.768 0.192-1.115 0.108-0.348 0.282-0.643 0.522-0.882 0.24-0.24 0.576-0.36 1.008-0.36s0.768 0.12 1.008 0.36c0.24 0.239 0.414 0.534 0.522 0.882 0.108 0.347 0.172 0.719 0.192 1.115s0.03 0.755 0.03 1.074c0 0.209-2e-3 0.439-6e-3 0.691s-0.024 0.503-0.06 0.755c-0.036 0.253-0.088 0.498-0.156 0.739-0.068 0.239-0.168 0.45-0.3 0.63-0.132 0.179-0.298 0.326-0.498 0.437-0.2 0.112-0.444 0.168-0.732 0.168s-0.532-0.056-0.732-0.168c-0.2-0.111-0.366-0.258-0.498-0.437-0.132-0.18-0.232-0.391-0.3-0.63-0.068-0.241-0.12-0.486-0.156-0.739-0.036-0.252-0.056-0.503-0.06-0.755s-6e-3 -0.482-6e-3 -0.691c0-0.319 0.01-0.678 0.03-1.074m-1.086 2.035c0.016 0.336 0.056 0.664 0.12 0.983 0.064 0.32 0.156 0.625 0.276 0.913s0.284 0.54 0.492 0.755c0.208 0.216 0.47 0.388 0.786 0.517 0.316 0.127 0.694 0.192 1.134 0.192s0.818-0.065 1.134-0.192c0.316-0.129 0.578-0.301 0.786-0.517 0.208-0.215 0.372-0.467 0.492-0.755s0.212-0.593 0.276-0.913c0.064-0.319 0.104-0.647 0.12-0.983s0.024-0.66 0.024-0.973c0-0.312-8e-3 -0.635-0.024-0.971s-0.056-0.664-0.12-0.984-0.156-0.623-0.276-0.906c-0.12-0.285-0.284-0.535-0.492-0.75-0.208-0.217-0.468-0.387-0.78-0.51-0.312-0.125-0.692-0.186-1.14-0.186-0.44 0-0.818 0.061-1.134 0.186-0.316 0.123-0.578 0.293-0.786 0.51-0.208 0.215-0.372 0.465-0.492 0.75-0.12 0.283-0.212 0.586-0.276 0.906s-0.104 0.648-0.12 0.984-0.024 0.659-0.024 0.971c0 0.313 8e-3 0.637 0.024 0.973" fill="#176fc1"/></g><g transform="translate(176.3 53.68)"><path d="m0 0c-0.076 0.275-0.192 0.521-0.348 0.738-0.156 0.216-0.356 0.388-0.6 0.516s-0.531 0.192-0.858 0.192c-0.344 0-0.636-0.068-0.876-0.204-0.24-0.137-0.436-0.314-0.588-0.534s-0.262-0.47-0.33-0.75c-0.069-0.28-0.102-0.564-0.102-0.853 0-0.303 0.036-0.597 0.108-0.88 0.071-0.286 0.186-0.536 0.342-0.75 0.156-0.217 0.357-0.391 0.606-0.523 0.248-0.132 0.548-0.198 0.9-0.198 0.351 0 0.646 0.068 0.882 0.204s0.425 0.315 0.57 0.54c0.144 0.224 0.248 0.481 0.312 0.768 0.063 0.289 0.096 0.584 0.096 0.888 0 0.287-0.038 0.571-0.114 0.846m-3.666 2.202v-0.841h0.024c0.168 0.345 0.431 0.595 0.792 0.75 0.36 0.156 0.756 0.235 1.188 0.235 0.48 0 0.898-0.088 1.254-0.264s0.652-0.414 0.888-0.714 0.413-0.646 0.534-1.038c0.12-0.392 0.18-0.809 0.18-1.248 0-0.44-0.058-0.856-0.174-1.248-0.116-0.393-0.293-0.734-0.528-1.025-0.236-0.293-0.532-0.523-0.888-0.691s-0.771-0.252-1.242-0.252c-0.152 0-0.323 0.017-0.51 0.048-0.188 0.032-0.375 0.084-0.558 0.156-0.184 0.072-0.358 0.17-0.522 0.294s-0.302 0.278-0.414 0.462h-0.024v-3.191h-1.02v8.567z" fill="#176fc1"/></g><g transform="translate(178.2 55.89)"><path d="m0 0h1.308l1.488-2.172 1.548 2.172h1.224l-2.136-2.856 2.4-3.348h-1.308l-1.728 2.568-1.728-2.568h-1.236l2.328 3.264z" fill="#176fc1"/></g><g transform="translate(335.6 72.65)"><path d="m0 0v-7.607h4.536v-0.961h-5.676v8.568z" fill="#176fc1"/></g><g transform="translate(344.3 67.08)"><path d="m0 0c-0.209-0.044-0.426-0.08-0.654-0.107-0.229-0.029-0.459-0.061-0.691-0.096-0.231-0.037-0.44-0.095-0.624-0.174-0.183-0.08-0.334-0.195-0.449-0.343-0.117-0.147-0.174-0.35-0.174-0.606 0-0.168 0.034-0.31 0.102-0.426 0.067-0.115 0.156-0.209 0.264-0.281 0.107-0.072 0.236-0.125 0.384-0.156 0.148-0.033 0.297-0.049 0.45-0.049 0.335 0 0.624 0.047 0.864 0.138 0.239 0.092 0.435 0.208 0.588 0.348 0.151 0.141 0.264 0.293 0.336 0.457 0.071 0.163 0.108 0.317 0.108 0.461v1.045c-0.129-0.097-0.297-0.166-0.504-0.211m1.428-3.125c-0.264 0-0.475 0.073-0.631 0.221-0.155 0.148-0.233 0.39-0.233 0.726-0.281-0.336-0.607-0.578-0.978-0.726-0.373-0.148-0.774-0.221-1.207-0.221-0.279 0-0.543 0.029-0.791 0.09-0.248 0.059-0.467 0.16-0.654 0.299-0.188 0.14-0.336 0.32-0.444 0.541-0.109 0.219-0.162 0.486-0.162 0.798 0 0.351 0.06 0.639 0.18 0.864 0.119 0.223 0.277 0.405 0.474 0.545 0.196 0.14 0.419 0.246 0.671 0.318s0.511 0.133 0.775 0.18c0.279 0.056 0.546 0.098 0.798 0.127 0.252 0.027 0.473 0.067 0.666 0.119 0.192 0.053 0.343 0.129 0.456 0.228 0.111 0.1 0.168 0.246 0.168 0.438 0 0.224-0.042 0.404-0.126 0.541-0.084 0.135-0.193 0.239-0.324 0.311-0.132 0.072-0.281 0.121-0.445 0.144-0.164 0.024-0.326 0.037-0.485 0.037-0.433 0-0.792-0.083-1.08-0.246-0.288-0.164-0.445-0.475-0.468-0.931h-1.021c0.017 0.384 0.097 0.708 0.241 0.972 0.143 0.264 0.336 0.479 0.575 0.643 0.24 0.164 0.517 0.281 0.828 0.353 0.313 0.072 0.641 0.108 0.984 0.108 0.281 0 0.559-0.02 0.834-0.059 0.277-0.041 0.527-0.123 0.75-0.246 0.225-0.125 0.405-0.299 0.54-0.523 0.136-0.223 0.205-0.516 0.205-0.876v-3.191c0-0.24 0.013-0.416 0.042-0.529 0.028-0.112 0.122-0.168 0.282-0.168 0.088 0 0.191 0.02 0.312 0.06v-0.792c-0.177-0.104-0.42-0.155-0.732-0.155" fill="#176fc1"/></g><g transform="translate(348.4 70.29)"><path d="m0 0v-1.309h0.023c0.249 0.504 0.553 0.876 0.913 1.117 0.36 0.239 0.816 0.351 1.369 0.335v-1.08c-0.408 0-0.756-0.055-1.045-0.168-0.287-0.112-0.52-0.276-0.695-0.492-0.176-0.215-0.305-0.477-0.385-0.786-0.08-0.308-0.119-0.662-0.119-1.062v-2.76h-1.021v6.205z" fill="#176fc1"/></g><g transform="translate(354.5 65.12)"><path d="m0 0c0.236 0.139 0.426 0.323 0.57 0.551 0.145 0.228 0.25 0.486 0.319 0.774 0.067 0.288 0.101 0.576 0.101 0.864 0 0.272-0.031 0.54-0.095 0.805-0.065 0.264-0.166 0.502-0.307 0.713-0.14 0.213-0.322 0.383-0.545 0.51-0.225 0.129-0.496 0.193-0.816 0.193-0.329 0-0.609-0.062-0.84-0.186-0.233-0.124-0.422-0.29-0.571-0.499-0.148-0.207-0.255-0.448-0.324-0.719-0.068-0.273-0.101-0.557-0.101-0.853 0-0.28 0.027-0.559 0.084-0.84 0.055-0.28 0.152-0.534 0.287-0.762 0.136-0.228 0.316-0.412 0.541-0.551 0.223-0.141 0.504-0.211 0.84-0.211s0.621 0.07 0.857 0.211m1.303-2.791c-0.465-0.504-1.193-0.756-2.184-0.756-0.289 0-0.582 0.032-0.883 0.096-0.299 0.064-0.572 0.168-0.816 0.312-0.244 0.145-0.445 0.332-0.606 0.565-0.16 0.232-0.248 0.515-0.263 0.851h1.019c8e-3 -0.183 0.067-0.34 0.174-0.468 0.109-0.127 0.24-0.231 0.397-0.311 0.156-0.08 0.326-0.139 0.509-0.175 0.184-0.036 0.36-0.054 0.528-0.054 0.337 0 0.621 0.059 0.852 0.174 0.232 0.116 0.425 0.276 0.576 0.481 0.152 0.203 0.262 0.449 0.331 0.738 0.067 0.287 0.102 0.604 0.102 0.947v0.409h-0.024c-0.177-0.385-0.443-0.666-0.798-0.846-0.357-0.181-0.735-0.271-1.135-0.271-0.464 0-0.867 0.084-1.211 0.252-0.345 0.168-0.633 0.394-0.865 0.679-0.231 0.283-0.406 0.615-0.522 0.996-0.116 0.379-0.173 0.781-0.173 1.205 0 0.368 0.047 0.746 0.144 1.135 0.096 0.387 0.256 0.739 0.48 1.056 0.223 0.315 0.52 0.575 0.887 0.78 0.368 0.203 0.821 0.305 1.356 0.305 0.392 0 0.752-0.086 1.08-0.258s0.584-0.43 0.768-0.774h0.013v0.889h0.959v-5.677c0-1.015-0.232-1.776-0.695-2.28" fill="#176fc1"/></g><g transform="translate(362.1 68.46)"><path d="m0 0c-0.092 0.216-0.215 0.402-0.371 0.558s-0.341 0.28-0.553 0.372c-0.212 0.091-0.445 0.138-0.701 0.138-0.265 0-0.503-0.047-0.715-0.138-0.212-0.092-0.394-0.219-0.546-0.378-0.151-0.16-0.272-0.347-0.36-0.558-0.088-0.213-0.14-0.438-0.155-0.679h3.563c-0.015 0.241-0.07 0.468-0.162 0.685m0.246-3.984c-0.464-0.352-1.048-0.528-1.752-0.528-0.496 0-0.926 0.08-1.289 0.239-0.365 0.161-0.671 0.384-0.918 0.672-0.248 0.288-0.434 0.632-0.558 1.033-0.125 0.4-0.195 0.836-0.21 1.308 0 0.471 0.071 0.903 0.215 1.295 0.145 0.393 0.346 0.733 0.606 1.021s0.568 0.511 0.925 0.671c0.355 0.161 0.745 0.241 1.17 0.241 0.551 0 1.009-0.114 1.374-0.343 0.363-0.228 0.656-0.518 0.876-0.869 0.219-0.353 0.372-0.736 0.456-1.152s0.117-0.813 0.101-1.188h-4.643c-9e-3 -0.273 0.024-0.53 0.095-0.774 0.073-0.245 0.189-0.46 0.349-0.648 0.159-0.188 0.363-0.338 0.611-0.451 0.248-0.111 0.54-0.168 0.876-0.168 0.433 0 0.786 0.1 1.062 0.301 0.277 0.199 0.459 0.504 0.547 0.912h1.008c-0.137-0.696-0.436-1.221-0.901-1.572" fill="#176fc1"/></g><g transform="translate(365.4 70.29)"><path d="m0 0v-1.309h0.023c0.248 0.504 0.553 0.876 0.912 1.117 0.36 0.239 0.817 0.351 1.369 0.335v-1.08c-0.409 0-0.756-0.055-1.044-0.168-0.288-0.112-0.521-0.276-0.697-0.492-0.175-0.215-0.303-0.477-0.383-0.786-0.08-0.308-0.12-0.662-0.12-1.062v-2.76h-1.021v6.205z" fill="#176fc1"/></g><g transform="translate(318.3 54.99)"><path d="m0 0v0.9h1.044v0.924c0 0.504 0.145 0.887 0.438 1.147 0.291 0.259 0.717 0.389 1.278 0.389 0.095 0 0.206-8e-3 0.33-0.024s0.234-0.039 0.33-0.072v-0.887c-0.088 0.031-0.184 0.053-0.288 0.065-0.105 0.012-0.2 0.019-0.288 0.019-0.248 0-0.44-0.049-0.576-0.145-0.136-0.095-0.204-0.28-0.204-0.552v-0.864h1.2v-0.9h-1.2v-5.304h-1.02v5.304z" fill="#176fc1"/></g><g transform="translate(323.3 51.78)"><path d="m0 0c0.1-0.293 0.237-0.537 0.414-0.732 0.176-0.197 0.381-0.346 0.617-0.451 0.237-0.104 0.487-0.156 0.75-0.156 0.264 0 0.514 0.052 0.75 0.156 0.237 0.105 0.442 0.254 0.618 0.451 0.176 0.195 0.314 0.439 0.415 0.732 0.1 0.291 0.149 0.625 0.149 1.002 0 0.375-0.049 0.709-0.149 1.002-0.101 0.291-0.239 0.537-0.415 0.737s-0.381 0.353-0.618 0.456c-0.236 0.104-0.486 0.157-0.75 0.157-0.263 0-0.513-0.053-0.75-0.157-0.236-0.103-0.441-0.256-0.617-0.456-0.177-0.2-0.314-0.446-0.414-0.737-0.101-0.293-0.15-0.627-0.15-1.002 0-0.377 0.049-0.711 0.15-1.002m-1.039 2.279c0.129 0.397 0.32 0.741 0.576 1.032 0.256 0.293 0.572 0.523 0.948 0.691s0.808 0.252 1.296 0.252c0.496 0 0.93-0.084 1.303-0.252 0.371-0.168 0.686-0.398 0.941-0.691 0.256-0.291 0.448-0.635 0.577-1.032 0.128-0.396 0.191-0.822 0.191-1.277 0-0.457-0.063-0.881-0.191-1.272-0.129-0.392-0.321-0.735-0.577-1.027-0.255-0.292-0.57-0.519-0.941-0.683-0.373-0.165-0.807-0.247-1.303-0.247-0.488 0-0.92 0.082-1.296 0.247-0.376 0.164-0.692 0.391-0.948 0.683s-0.447 0.635-0.576 1.027c-0.127 0.391-0.191 0.815-0.191 1.272 0 0.455 0.064 0.881 0.191 1.277" fill="#176fc1"/></g><g transform="translate(330.2 55.89)"><path d="m0 0v-1.309h0.023c0.248 0.504 0.553 0.877 0.913 1.118 0.359 0.239 0.816 0.351 1.368 0.336v-1.081c-0.408 0-0.756-0.056-1.044-0.168-0.288-0.113-0.521-0.276-0.697-0.492-0.175-0.216-0.303-0.478-0.383-0.787-0.08-0.306-0.12-0.661-0.12-1.061v-2.76h-1.021v6.204z" fill="#176fc1"/></g><g transform="translate(339.1 49.68)"><path d="m0 0v6.097h-2.207v0.815c0.287 0 0.567 0.023 0.84 0.065 0.271 0.045 0.517 0.128 0.738 0.247 0.219 0.121 0.405 0.284 0.558 0.492 0.151 0.208 0.256 0.473 0.311 0.792h0.78v-8.508z" fill="#176fc1"/></g><g transform="translate(343.2 56.38)"><path d="m0 0c0.112 0.367 0.286 0.686 0.522 0.953 0.236 0.269 0.53 0.479 0.881 0.631 0.353 0.151 0.752 0.227 1.201 0.227 0.368 0 0.713-0.053 1.038-0.161 0.324-0.109 0.606-0.264 0.845-0.468 0.241-0.205 0.431-0.458 0.571-0.762 0.14-0.305 0.211-0.656 0.211-1.057 0-0.375-0.059-0.707-0.175-0.996-0.116-0.287-0.271-0.545-0.462-0.773-0.192-0.229-0.412-0.434-0.66-0.618-0.248-0.185-0.504-0.361-0.768-0.529-0.264-0.16-0.528-0.317-0.793-0.473-0.264-0.156-0.506-0.323-0.724-0.498-0.221-0.176-0.409-0.367-0.565-0.57-0.156-0.205-0.258-0.438-0.307-0.703h4.37v-0.899h-5.557c0.04 0.504 0.13 0.934 0.269 1.29 0.141 0.355 0.319 0.666 0.535 0.929 0.215 0.264 0.46 0.497 0.732 0.697s0.556 0.387 0.852 0.563c0.36 0.225 0.676 0.431 0.948 0.619 0.271 0.188 0.498 0.377 0.678 0.57 0.179 0.192 0.316 0.399 0.408 0.624 0.092 0.224 0.139 0.484 0.139 0.779 0 0.232-0.045 0.443-0.133 0.631-0.088 0.187-0.206 0.349-0.354 0.486-0.148 0.135-0.322 0.24-0.522 0.312-0.201 0.071-0.412 0.108-0.636 0.108-0.297 0-0.551-0.062-0.762-0.186-0.213-0.124-0.386-0.287-0.522-0.486-0.136-0.201-0.234-0.427-0.294-0.679-0.061-0.252-0.086-0.505-0.078-0.761h-1.02c-0.024 0.432 0.02 0.832 0.132 1.2" fill="#176fc1"/></g><g transform="translate(350.8 52.8)"><path d="m0 0c0.02-0.396 0.084-0.768 0.191-1.116 0.109-0.349 0.283-0.642 0.523-0.882 0.239-0.24 0.575-0.36 1.008-0.36 0.432 0 0.768 0.12 1.008 0.36s0.414 0.533 0.522 0.882c0.107 0.348 0.172 0.72 0.191 1.116 0.02 0.396 0.031 0.754 0.031 1.074 0 0.207-2e-3 0.438-6e-3 0.69-5e-3 0.252-0.025 0.504-0.06 0.756-0.037 0.251-0.088 0.498-0.156 0.738s-0.168 0.449-0.301 0.63c-0.131 0.18-0.297 0.325-0.498 0.438-0.199 0.111-0.443 0.168-0.731 0.168s-0.533-0.057-0.732-0.168c-0.201-0.113-0.367-0.258-0.498-0.438-0.133-0.181-0.232-0.39-0.301-0.63-0.068-0.24-0.119-0.487-0.156-0.738-0.035-0.252-0.056-0.504-0.059-0.756-4e-3 -0.252-6e-3 -0.483-6e-3 -0.69 0-0.32 9e-3 -0.678 0.03-1.074m-1.086 2.033c0.016 0.336 0.056 0.664 0.119 0.985 0.065 0.32 0.156 0.624 0.277 0.912 0.12 0.288 0.284 0.54 0.492 0.756s0.469 0.388 0.786 0.515c0.316 0.129 0.693 0.193 1.134 0.193 0.44 0 0.817-0.064 1.133-0.193 0.317-0.127 0.579-0.299 0.787-0.515s0.372-0.468 0.492-0.756 0.212-0.592 0.276-0.912c0.064-0.321 0.104-0.649 0.119-0.985 0.017-0.336 0.025-0.66 0.025-0.971 0-0.312-8e-3 -0.636-0.025-0.972-0.015-0.336-0.055-0.664-0.119-0.985-0.064-0.32-0.156-0.622-0.276-0.906-0.12-0.283-0.284-0.533-0.492-0.75-0.208-0.215-0.468-0.385-0.781-0.51-0.311-0.123-0.691-0.185-1.139-0.185-0.441 0-0.818 0.062-1.134 0.185-0.317 0.125-0.578 0.295-0.786 0.51-0.208 0.217-0.372 0.467-0.492 0.75-0.121 0.284-0.212 0.586-0.277 0.906-0.063 0.321-0.103 0.649-0.119 0.985-0.017 0.336-0.024 0.66-0.024 0.972 0 0.311 7e-3 0.635 0.024 0.971" fill="#176fc1"/></g><g transform="translate(361.4 53.68)"><path d="m0 0c-0.076 0.276-0.192 0.522-0.349 0.738-0.156 0.216-0.355 0.388-0.599 0.516s-0.531 0.192-0.858 0.192c-0.344 0-0.636-0.068-0.877-0.204-0.24-0.136-0.435-0.313-0.588-0.534-0.152-0.221-0.261-0.471-0.33-0.75-0.068-0.28-0.101-0.564-0.101-0.852 0-0.304 0.036-0.598 0.107-0.882 0.073-0.284 0.187-0.534 0.342-0.75 0.156-0.216 0.358-0.39 0.607-0.522 0.248-0.133 0.547-0.198 0.9-0.198 0.351 0 0.645 0.067 0.882 0.204 0.236 0.136 0.425 0.316 0.57 0.54 0.144 0.224 0.248 0.48 0.312 0.769 0.063 0.287 0.096 0.584 0.096 0.886 0 0.289-0.039 0.571-0.114 0.847m-3.666 2.202v-0.84h0.024c0.168 0.344 0.432 0.594 0.791 0.75 0.361 0.157 0.756 0.235 1.189 0.235 0.479 0 0.897-0.089 1.254-0.265 0.356-0.177 0.651-0.414 0.887-0.714 0.237-0.301 0.414-0.646 0.535-1.038 0.12-0.392 0.18-0.808 0.18-1.248s-0.058-0.856-0.174-1.248c-0.117-0.392-0.292-0.733-0.529-1.026-0.235-0.291-0.531-0.522-0.887-0.69-0.357-0.168-0.771-0.252-1.242-0.252-0.152 0-0.322 0.016-0.51 0.048-0.189 0.032-0.374 0.084-0.558 0.155-0.184 0.073-0.358 0.17-0.522 0.295-0.164 0.123-0.302 0.278-0.414 0.462h-0.024v-3.192h-1.021v8.568z" fill="#176fc1"/></g><g transform="translate(363.3 55.89)"><path d="m0 0h1.309l1.487-2.172 1.548 2.172h1.224l-2.136-2.855 2.4-3.349h-1.309l-1.727 2.567-1.728-2.567h-1.236l2.328 3.265z" fill="#176fc1"/></g><g transform="translate(379.2 53.13)"><path d="m0 0v-0.816h-2.616v-2.628h-0.816v2.628h-2.616v0.816h2.616v2.627h0.816v-2.627z" fill="#176fc1"/></g></g></g></svg>
