<?xml version="1.0" encoding="UTF-8" standalone="no"?>
<svg
   xmlns:dc="http://purl.org/dc/elements/1.1/"
   xmlns:cc="http://creativecommons.org/ns#"
   xmlns:rdf="http://www.w3.org/1999/02/22-rdf-syntax-ns#"
   xmlns:svg="http://www.w3.org/2000/svg"
   xmlns="http://www.w3.org/2000/svg"
   xmlns:sodipodi="http://sodipodi.sourceforge.net/DTD/sodipodi-0.dtd"
   xmlns:inkscape="http://www.inkscape.org/namespaces/inkscape"
   width="36.141911mm"
   height="8.1491404mm"
   viewBox="0 0 36.141911 8.1491404"
   version="1.1"
   id="svg8"
   inkscape:version="1.0.2 (1.0.2+r75+1)"
   sodipodi:docname="GitHub.svg">
  <defs
     id="defs2" />
  <sodipodi:namedview
     id="base"
     pagecolor="#ffffff"
     bordercolor="#666666"
     borderopacity="1.0"
     inkscape:pageopacity="0.0"
     inkscape:pageshadow="2"
     inkscape:zoom="2.8"
     inkscape:cx="107.54159"
     inkscape:cy="78.636332"
     inkscape:document-units="mm"
     inkscape:current-layer="layer1"
     inkscape:document-rotation="0"
     showgrid="false"
     inkscape:window-width="921"
     inkscape:window-height="1046"
     inkscape:window-x="0"
     inkscape:window-y="0"
     inkscape:window-maximized="0" />
  <metadata
     id="metadata5">
    <rdf:RDF>
      <cc:Work
         rdf:about="">
        <dc:format>image/svg+xml</dc:format>
        <dc:type
           rdf:resource="http://purl.org/dc/dcmitype/StillImage" />
        <dc:title></dc:title>
      </cc:Work>
    </rdf:RDF>
  </metadata>
  <g
     inkscape:label="Layer 1"
     inkscape:groupmode="layer"
     id="layer1"
     transform="translate(-2.2013359,-2.1998497)">
    <g
       aria-label="GitHub"
       id="text835"
       style="font-size:10.5833px;line-height:1.25;font-family:sans-serif;letter-spacing:0px;fill:#909090;fill-opacity:0.99000001;stroke-width:0.264583">
      <path
         d="m 5.4080757,5.9992542 h 2.9950738 v 3.9158209 q -0.5926648,0.2010829 -1.2382461,0.3174989 -0.634998,0.116416 -1.449912,0.116416 -1.693328,0 -2.6034917,-0.9948298 -0.9101638,-0.9948301 -0.9101638,-2.8998241 0,-1.1853295 0.4550819,-2.0531601 0.4656652,-0.8678306 1.344079,-1.3440791 0.8784139,-0.4762485 2.1484098,-0.4762485 0.6032481,0 1.1853296,0.1269996 0.5820815,0.1269996 1.05833,0.3386656 L 7.8634012,4.3270929 Q 7.5141523,4.1471768 7.0696537,4.0307605 6.6251551,3.9143442 6.1383233,3.9143442 q -0.6984977,0 -1.2170794,0.317499 -0.5079984,0.317499 -0.7937475,0.8995805 -0.2751658,0.5714981 -0.2751658,1.3546623 0,0.740831 0.2010827,1.3123292 0.2010827,0.5714982 0.634998,0.8995804 0.4339153,0.317499 1.1324131,0.317499 0.3386655,0 0.5714981,-0.03175 0.2434159,-0.03175 0.4444986,-0.074083 V 7.33275 H 5.4080757 Z"
         style="font-style:normal;font-variant:normal;font-weight:bold;font-stretch:normal;font-family:System-ui;-inkscape-font-specification:'System-ui Bold';fill:#909090;fill-opacity:0.99000001;stroke-width:0.264583"
         id="path1095" />
      <path
         d="m 10.869048,2.1998497 q 0.349249,0 0.603248,0.1693328 0.253999,0.1587495 0.253999,0.603248 0,0.4339153 -0.253999,0.6032481 -0.253999,0.1693328 -0.603248,0.1693328 -0.359832,0 -0.613831,-0.1693328 -0.243416,-0.1693328 -0.243416,-0.6032481 0,-0.4444985 0.243416,-0.603248 0.253999,-0.1693328 0.613831,-0.1693328 z m 0.783164,2.2648261 V 10.243157 H 10.075301 V 4.4646758 Z"
         style="font-style:normal;font-variant:normal;font-weight:bold;font-stretch:normal;font-family:System-ui;-inkscape-font-specification:'System-ui Bold';fill:#909090;fill-opacity:0.99000001;stroke-width:0.264583"
         id="path1097" />
      <path
         d="m 15.737349,9.0895777 q 0.264583,0 0.507998,-0.052917 0.243416,-0.052916 0.486832,-0.1269996 v 1.1747464 q -0.253999,0.105833 -0.634998,0.179916 -0.370415,0.08467 -0.814914,0.08467 -0.518582,0 -0.93133,-0.169332 -0.402166,-0.169333 -0.645582,-0.5820819 -0.232832,-0.423332 -0.232832,-1.164163 V 5.6500053 H 12.721109 V 4.9832575 l 0.86783,-0.529165 0.455082,-1.2170795 h 1.005414 v 1.2276628 h 1.619244 v 1.1853295 h -1.619244 v 2.7834078 q 0,0.3280823 0.190499,0.4974151 0.190499,0.1587495 0.497415,0.1587495 z"
         style="font-style:normal;font-variant:normal;font-weight:bold;font-stretch:normal;font-family:System-ui;-inkscape-font-specification:'System-ui Bold';fill:#909090;fill-opacity:0.99000001;stroke-width:0.264583"
         id="path1099" />
      <path
         d="M 24.214552,10.243157 H 22.616474 V 6.9835011 H 19.6214 V 10.243157 H 18.023322 V 2.6866814 H 19.6214 v 2.9633239 h 2.995074 V 2.6866814 h 1.598078 z"
         style="font-style:normal;font-variant:normal;font-weight:bold;font-stretch:normal;font-family:System-ui;-inkscape-font-specification:'System-ui Bold';fill:#909090;fill-opacity:0.99000001;stroke-width:0.264583"
         id="path1101" />
      <path
         d="M 31.294773,4.4646758 V 10.243157 H 30.088277 L 29.876611,9.5023264 h -0.08467 q -0.275166,0.4444986 -0.761998,0.6455816 -0.476248,0.201082 -1.015997,0.201082 -0.93133,0 -1.492245,-0.4974147 Q 25.96079,9.3435769 25.96079,8.2323305 V 4.4646758 h 1.576912 v 3.3760726 q 0,0.6138313 0.222249,0.9313303 0.22225,0.317499 0.709081,0.317499 0.719665,0 0.984247,-0.4868318 0.264583,-0.497415 0.264583,-1.4181621 v -2.719908 z"
         style="font-style:normal;font-variant:normal;font-weight:bold;font-stretch:normal;font-family:System-ui;-inkscape-font-specification:'System-ui Bold';fill:#909090;fill-opacity:0.99000001;stroke-width:0.264583"
         id="path1103" />
      <path
         d="m 34.522676,2.1998497 v 1.873244 q 0,0.3280823 -0.02117,0.6455813 -0.02117,0.317499 -0.04233,0.4974151 h 0.0635 q 0.232833,-0.3598322 0.624415,-0.6032481 0.391582,-0.2539992 1.015996,-0.2539992 0.973664,0 1.576912,0.7619976 0.603248,0.7514142 0.603248,2.2224929 0,1.4816619 -0.613831,2.2436595 -0.613832,0.7619972 -1.608662,0.7619972 -0.634998,0 -1.005413,-0.222249 Q 34.755509,9.8939085 34.522676,9.6081594 H 34.416843 L 34.152261,10.243157 H 32.945764 V 2.1998497 Z m 1.132413,3.4184057 q -0.613831,0 -0.86783,0.3809988 -0.243416,0.3809988 -0.264583,1.164163 V 7.33275 q 0,0.8360807 0.243416,1.2911625 0.253999,0.4444986 0.910164,0.4444986 0.486831,0 0.772581,-0.4444986 0.285749,-0.4550818 0.285749,-1.3017458 0,-0.846664 -0.296333,-1.269996 -0.285749,-0.4339153 -0.783164,-0.4339153 z"
         style="font-style:normal;font-variant:normal;font-weight:bold;font-stretch:normal;font-family:System-ui;-inkscape-font-specification:'System-ui Bold';fill:#909090;fill-opacity:0.99000001;stroke-width:0.264583"
         id="path1105" />
    </g>
  </g>
</svg>
