<?xml version="1.0" encoding="UTF-8" standalone="no"?>
<svg
   xmlns:dc="http://purl.org/dc/elements/1.1/"
   xmlns:cc="http://creativecommons.org/ns#"
   xmlns:rdf="http://www.w3.org/1999/02/22-rdf-syntax-ns#"
   xmlns:svg="http://www.w3.org/2000/svg"
   xmlns="http://www.w3.org/2000/svg"
   xmlns:sodipodi="http://sodipodi.sourceforge.net/DTD/sodipodi-0.dtd"
   xmlns:inkscape="http://www.inkscape.org/namespaces/inkscape"
   width="89.248848mm"
   height="5.0842166mm"
   viewBox="0 0 89.248848 5.0842166"
   version="1.1"
   id="svg8"
   inkscape:version="1.0.2 (1.0.2+r75+1)"
   sodipodi:docname="SRDC.svg">
  <defs
     id="defs2">
    <rect
       x="3.3141406"
       y="7.4835467"
       width="109.36669"
       height="26.620047"
       id="rect835" />
  </defs>
  <sodipodi:namedview
     id="base"
     pagecolor="#ffffff"
     bordercolor="#666666"
     borderopacity="1.0"
     inkscape:pageopacity="0.0"
     inkscape:pageshadow="2"
     inkscape:zoom="2.8"
     inkscape:cx="165.23684"
     inkscape:cy="80.85866"
     inkscape:document-units="mm"
     inkscape:current-layer="layer1"
     inkscape:document-rotation="0"
     showgrid="false"
     inkscape:window-width="1858"
     inkscape:window-height="1050"
     inkscape:window-x="0"
     inkscape:window-y="0"
     inkscape:window-maximized="1" />
  <metadata
     id="metadata5">
    <rdf:RDF>
      <cc:Work
         rdf:about="">
        <dc:format>image/svg+xml</dc:format>
        <dc:type
           rdf:resource="http://purl.org/dc/dcmitype/StillImage" />
        <dc:title></dc:title>
      </cc:Work>
    </rdf:RDF>
  </metadata>
  <g
     inkscape:label="Layer 1"
     inkscape:groupmode="layer"
     id="layer1"
     transform="translate(-6.1396786,-4.48403)">
    <text
       xml:space="preserve"
       id="text833"
       style="font-style:normal;font-weight:normal;font-size:10.5833px;line-height:1.25;font-family:sans-serif;white-space:pre;shape-inside:url(#rect835);fill:#b3b3b3;fill-opacity:1;stroke:none;" />
    <path
       d="M 13.124656,6.3513239 V 7.7009521 Z M 8.0764224,5.8429023 v 0.5084216 h 5.0482336 v 2.2000788 q 0,0.036976 0,0.046221 -0.02117,0.3974933 -0.359832,0.6840582 -0.338665,0.2865649 -0.804331,0.2865649 0,0 -5.8208144,0 V 8.2093737 H 11.187912 V 7.7009521 H 6.1396786 V 5.5008732 q 0,-0.027732 0,-0.046221 Q 6.1608452,5.0479158 6.4995107,4.7705949 6.8487596,4.48403 7.3038415,4.48403 h 5.8208145 v 1.3588723 z"
       style="font-style:normal;font-variant:normal;font-weight:normal;font-stretch:normal;font-size:10.5833px;line-height:1.25;font-family:Excluded;-inkscape-font-specification:'Excluded, Normal';font-variant-ligatures:normal;font-variant-caps:normal;font-variant-numeric:normal;font-variant-east-asian:normal;fill:#b3b3b3;fill-opacity:1;stroke:none;stroke-width:0.247276"
       id="path843" />
    <path
       d="m 19.897958,4.48403 q 0.486832,0 0.825498,0.295809 0.338665,0.2958089 0.338665,0.7210342 v 1.3588723 q 0,0.4159813 -0.338665,0.7210343 -0.338666,0.2958089 -0.825498,0.2958089 H 16.013887 V 9.568246 H 14.077143 V 4.48403 Z M 19.125377,6.5177164 V 5.8429023 h -3.11149 v 0.6748141 z"
       style="font-style:normal;font-variant:normal;font-weight:normal;font-stretch:normal;font-size:10.5833px;line-height:1.25;font-family:Excluded;-inkscape-font-specification:'Excluded, Normal';font-variant-ligatures:normal;font-variant-caps:normal;font-variant-numeric:normal;font-variant-east-asian:normal;fill:#b3b3b3;fill-opacity:1;stroke:none;stroke-width:0.247276"
       id="path845" />
    <path
       d="m 23.951352,5.8429023 v 0.5084216 h 4.180404 v 1.3496282 h -4.180404 v 0.5084216 h 5.048234 V 9.568246 h -5.820815 q -0.486831,0 -0.825497,-0.295809 Q 22.014608,8.9766281 22.014608,8.5514027 V 5.5008732 q 0,-0.4252253 0.338666,-0.7210342 Q 22.69194,4.48403 23.178771,4.48403 h 5.820815 v 1.3588723 z"
       style="font-style:normal;font-variant:normal;font-weight:normal;font-stretch:normal;font-size:10.5833px;line-height:1.25;font-family:Excluded;-inkscape-font-specification:'Excluded, Normal';font-variant-ligatures:normal;font-variant-caps:normal;font-variant-numeric:normal;font-variant-east-asian:normal;fill:#b3b3b3;fill-opacity:1;stroke:none;stroke-width:0.247276"
       id="path847" />
    <path
       d="m 31.888816,5.8429023 v 0.5084216 h 4.180403 V 7.7009521 H 31.888816 V 8.2093737 H 36.93705 V 9.568246 h -5.820815 q -0.486832,0 -0.825497,-0.295809 Q 29.952072,8.9766281 29.952072,8.5514027 V 5.5008732 q 0,-0.4252253 0.338666,-0.7210342 0.338665,-0.295809 0.825497,-0.295809 h 5.820815 v 1.3588723 z"
       style="font-style:normal;font-variant:normal;font-weight:normal;font-stretch:normal;font-size:10.5833px;line-height:1.25;font-family:Excluded;-inkscape-font-specification:'Excluded, Normal';font-variant-ligatures:normal;font-variant-caps:normal;font-variant-numeric:normal;font-variant-east-asian:normal;fill:#b3b3b3;fill-opacity:1;stroke:none;stroke-width:0.247276"
       id="path849" />
    <path
       d="m 43.710353,4.48403 q 0.486832,0 0.825497,0.295809 0.338666,0.2958089 0.338666,0.7210342 v 3.0505295 q 0,0.4252254 -0.338666,0.7210343 -0.338665,0.295809 -0.825497,0.295809 H 37.889538 V 4.48403 Z M 42.937772,8.2093737 V 5.8429023 h -3.11149 v 2.3664714 z"
       style="font-style:normal;font-variant:normal;font-weight:normal;font-stretch:normal;font-size:10.5833px;line-height:1.25;font-family:Excluded;-inkscape-font-specification:'Excluded, Normal';font-variant-ligatures:normal;font-variant-caps:normal;font-variant-numeric:normal;font-variant-east-asian:normal;fill:#b3b3b3;fill-opacity:1;stroke:none;stroke-width:0.247276"
       id="path851" />
    <path
       d="m 51.647819,4.48403 q 0.486832,0 0.825497,0.295809 0.338666,0.2958089 0.338666,0.7210342 v 1.3588723 q 0,0.4159813 -0.338666,0.7210343 -0.338665,0.2958089 -0.825497,0.2958089 H 51.192737 L 52.811982,9.568246 H 50.790571 L 49.160743,7.8765887 H 47.763748 V 9.568246 H 45.827004 V 4.48403 Z M 50.875238,6.5177164 V 5.8429023 h -3.11149 v 0.6748141 z"
       style="font-style:normal;font-variant:normal;font-weight:normal;font-stretch:normal;font-size:10.5833px;line-height:1.25;font-family:Excluded;-inkscape-font-specification:'Excluded, Normal';font-variant-ligatures:normal;font-variant-caps:normal;font-variant-numeric:normal;font-variant-east-asian:normal;fill:#b3b3b3;fill-opacity:1;stroke:none;stroke-width:0.247276"
       id="path853" />
    <path
       d="m 60.707111,4.48403 v 4.0673727 q 0,0.4252254 -0.338666,0.7210343 -0.338666,0.295809 -0.825497,0.295809 h -4.656652 q -0.486832,0 -0.825498,-0.295809 Q 53.722133,8.9766281 53.722133,8.5514027 V 4.48403 h 1.936744 v 3.7253437 h 3.11149 V 4.48403 Z"
       style="font-style:normal;font-variant:normal;font-weight:normal;font-stretch:normal;font-size:10.5833px;line-height:1.25;font-family:Excluded;-inkscape-font-specification:'Excluded, Normal';font-variant-ligatures:normal;font-variant-caps:normal;font-variant-numeric:normal;font-variant-east-asian:normal;fill:#b3b3b3;fill-opacity:1;stroke:none;stroke-width:0.247276"
       id="path855" />
    <path
       d="m 68.68691,4.48403 v 4.0673727 q 0,0.4252254 -0.338666,0.7210343 -0.338666,0.295809 -0.825497,0.295809 H 66.527916 L 63.638676,6.4160321 V 9.568246 H 61.701932 V 5.5008732 q 0,-0.4252253 0.338665,-0.7210342 0.338666,-0.295809 0.825498,-0.295809 h 0.99483 l 2.889241,3.1522139 V 4.48403 Z"
       style="font-style:normal;font-variant:normal;font-weight:normal;font-stretch:normal;font-size:10.5833px;line-height:1.25;font-family:Excluded;-inkscape-font-specification:'Excluded, Normal';font-variant-ligatures:normal;font-variant-caps:normal;font-variant-numeric:normal;font-variant-east-asian:normal;fill:#b3b3b3;fill-opacity:1;stroke:none;stroke-width:0.247276"
       id="path857" />
    <path
       d="M 69.163149,9.568246 V 8.2093737 h 1.555745 V 9.568246 Z"
       style="font-style:normal;font-variant:normal;font-weight:normal;font-stretch:normal;font-size:10.5833px;line-height:1.25;font-family:Excluded;-inkscape-font-specification:'Excluded, Normal';font-variant-ligatures:normal;font-variant-caps:normal;font-variant-numeric:normal;font-variant-east-asian:normal;fill:#b3b3b3;fill-opacity:1;stroke:none;stroke-width:0.247276"
       id="path859" />
    <path
       d="m 73.692787,5.8429023 v 2.3664714 h 5.048234 V 9.568246 h -5.820815 q -0.486831,0 -0.825497,-0.295809 Q 71.756043,8.9766281 71.756043,8.5514027 V 5.5008732 q 0,-0.4252253 0.338666,-0.7210342 0.338666,-0.295809 0.825497,-0.295809 h 5.820815 v 1.3588723 z"
       style="font-style:normal;font-variant:normal;font-weight:normal;font-stretch:normal;font-size:10.5833px;line-height:1.25;font-family:Excluded;-inkscape-font-specification:'Excluded, Normal';font-variant-ligatures:normal;font-variant-caps:normal;font-variant-numeric:normal;font-variant-east-asian:normal;fill:#b3b3b3;fill-opacity:1;stroke:none;stroke-width:0.247276"
       id="path861" />
    <path
       d="M 84.741747,8.2093737 V 5.8429023 h -3.11149 V 8.2093737 Z M 85.514328,4.48403 q 0.486832,0 0.825497,0.295809 0.338666,0.2958089 0.338666,0.7210342 v 3.0505295 q 0,0.4252254 -0.338666,0.7210343 -0.338665,0.295809 -0.825497,0.295809 h -4.656652 q -0.486832,0 -0.825497,-0.295809 Q 79.693513,8.9766281 79.693513,8.5514027 V 5.5008732 q 0,-0.4252253 0.338666,-0.7210342 0.338665,-0.295809 0.825497,-0.295809 z"
       style="font-style:normal;font-variant:normal;font-weight:normal;font-stretch:normal;font-size:10.5833px;line-height:1.25;font-family:Excluded;-inkscape-font-specification:'Excluded, Normal';font-variant-ligatures:normal;font-variant-caps:normal;font-variant-numeric:normal;font-variant-east-asian:normal;fill:#b3b3b3;fill-opacity:1;stroke:none;stroke-width:0.247276"
       id="path863" />
    <path
       d="M 95.388527,5.5008732 V 9.568246 h -1.94732 V 6.9059656 L 91.504463,9.568246 89.567719,6.9059656 V 9.568246 H 87.620392 V 5.5008732 q 0,-0.4252253 0.338665,-0.7210342 0.349249,-0.295809 0.825498,-0.295809 h 0.857247 L 91.504463,7.0446261 93.367124,4.48403 h 0.857247 q 0.476248,0 0.814909,0.295809 0.349247,0.2958089 0.349247,0.7210342 z"
       style="font-style:normal;font-variant:normal;font-weight:normal;font-stretch:normal;font-size:10.5833px;line-height:1.25;font-family:Excluded;-inkscape-font-specification:'Excluded, Normal';font-variant-ligatures:normal;font-variant-caps:normal;font-variant-numeric:normal;font-variant-east-asian:normal;fill:#b3b3b3;fill-opacity:1;stroke:none;stroke-width:0.247276"
       id="path865" />
  </g>
</svg>
